<svg xmlns="http://www.w3.org/2000/svg" width="34" height="34" viewBox="0 0 34 34">
  <g id="Group_41249" data-name="Group 41249" transform="translate(-262 -539)">
    <g id="Ellipse_1281" data-name="Ellipse 1281" transform="translate(262 539)" fill="#fff" stroke="#f15921" stroke-width="1">
      <circle cx="17" cy="17" r="17" stroke="none"/>
      <circle cx="17" cy="17" r="16.5" fill="none"/>
    </g>
    <g id="noun-mobile-and-tablet-3340698" transform="translate(153.448 545.049)">
      <path id="Path_11828" data-name="Path 11828" d="M204.216,19.649V1.621a1.522,1.522,0,0,0-1.665-1.667h-12.96a1.509,1.509,0,0,0-1.585,1.578V8.915h.779V1.882h14.657V20.835H193.23a2.367,2.367,0,0,1-.552,2.008h10.006a1.514,1.514,0,0,0,1.532-1.539c0-.55,0-1.106,0-1.656ZM196.1,22.4a.6.6,0,1,1,.432-.169.6.6,0,0,1-.432.169Z" transform="translate(-69.489 0)" fill="#f15921"/>
      <path id="Path_11829" data-name="Path 11829" d="M123.193,234.512a1.335,1.335,0,0,0-1.39-1.408h-4.86a1.324,1.324,0,0,0-1.39,1.427v10.544a1.335,1.335,0,0,0,1.4,1.4h4.837a1.344,1.344,0,0,0,1.4-1.42c0-1.477-.034-2.952-.043-4.427,0-.4.043-.8.043-1.2q.007-2.455,0-4.91Zm-.573,10.521a.795.795,0,0,1-.866.857h-4.764c-.559,0-.854-.318-.854-.916V234.51h0a.756.756,0,0,1,.758-.818c.176-.014.353,0,.54,0a1.273,1.273,0,0,0,.021.144h0a.664.664,0,0,0,.712.616c.8,0,1.6.012,2.393,0,.458,0,.664-.229.737-.776h0a6.191,6.191,0,0,1,.726.041.782.782,0,0,1,.6.856v3.651c0,1.015.025,2.027.025,3.041,0,1.255-.025,2.512-.025,3.767Z" transform="translate(0 -223.616)" fill="#f15921"/>
      <path id="Path_11830" data-name="Path 11830" d="M376.373,523.187a.428.428,0,0,1-.442.435.44.44,0,0,1-.421-.437.433.433,0,1,1,.863,0Z" transform="translate(-249.325 -501.389)" fill="#f15921"/>
    </g>
  </g>
</svg>
