<svg xmlns="http://www.w3.org/2000/svg" width="34" height="34" viewBox="0 0 34 34">
  <g id="Group_41246" data-name="Group 41246" transform="translate(-262 -335)">
    <g id="Ellipse_1278" data-name="Ellipse 1278" transform="translate(262 335)" fill="#fff" stroke="#f15921" stroke-width="1">
      <circle cx="17" cy="17" r="17" stroke="none"/>
      <circle cx="17" cy="17" r="16.5" fill="none"/>
    </g>
    <g id="noun-fashion-2573136" transform="translate(206.949 338.672)">
      <path id="Path_11943" data-name="Path 11943" d="M284.059,208.864a.388.388,0,0,1-.1-.014l-12.489-3.48a.39.39,0,0,1-.271-.482l2.386-8.563a4.467,4.467,0,0,1,3.3-3.155.39.39,0,1,1,.175.76,3.687,3.687,0,0,0-2.727,2.6l-2.281,8.189,11.737,3.271,2.282-8.186a3.688,3.688,0,0,0-.987-3.64.39.39,0,1,1,.542-.56,4.465,4.465,0,0,1,1.2,4.409l-2.385,8.562a.39.39,0,0,1-.376.285Z" transform="translate(-202.088 -183.615)" fill="#f15921"/>
      <path id="Path_11944" data-name="Path 11944" d="M399.813,140.23h-.032a.392.392,0,0,1-.29-.169l-2.077-3.027a.39.39,0,0,1-.019-.411l1.429-2.545a.39.39,0,0,1,.631-.069l2.892,3.238a.39.39,0,0,1-.01.53l-2.246,2.333A.39.39,0,0,1,399.813,140.23Zm-1.618-3.438,1.668,2.432,1.663-1.728-2.29-2.561Z" transform="translate(-322.852 -126.876)" fill="#f15921"/>
      <path id="Path_11945" data-name="Path 11945" d="M499.4,184.913a.39.39,0,0,1-.381-.3l-.715-3.161a.39.39,0,0,1,.266-.459l4.152-1.276a.391.391,0,0,1,.5.386l-.094,2.918a.391.391,0,0,1-.229.343l-3.343,1.516a.387.387,0,0,1-.161.035Zm-.256-3.282.53,2.338,2.686-1.218.068-2.129Z" transform="translate(-419.481 -170.734)" fill="#f15921"/>
      <path id="Path_11946" data-name="Path 11946" d="M438.184,136.61a.39.39,0,0,1-.1-.014l-7.045-1.963a.39.39,0,1,1,.21-.751l7.043,1.965a.39.39,0,0,1-.1.766Z" transform="translate(-354.826 -126.864)" fill="#f15921"/>
      <path id="Path_11947" data-name="Path 11947" d="M418.485,222.756a.39.39,0,0,1-.376-.5l3.434-12.325a.39.39,0,0,1,.752.21l-3.434,12.325a.39.39,0,0,1-.376.287Z" transform="translate(-342.712 -199.411)" fill="#f15921"/>
      <path id="Path_11948" data-name="Path 11948" d="M492.633,354.895a.628.628,0,1,1-.888-.009.628.628,0,0,1,.888.009" transform="translate(-413.028 -338.248)" fill="#f15921"/>
      <path id="Path_11949" data-name="Path 11949" d="M469.994,434.279a.628.628,0,1,1-.635.622.628.628,0,0,1,.635-.622" transform="translate(-391.782 -414.413)" fill="#f15921"/>
      <path id="Path_11950" data-name="Path 11950" d="M111.152,17.206a.39.39,0,0,1-.365-.252L106.365,5.307a.39.39,0,0,1,.227-.5l9.084-3.45a.392.392,0,0,1,.506.226l2.983,7.859a.393.393,0,1,1-.735.276l-2.842-7.493-8.354,3.171,4.147,10.919,4.006-1.521a.39.39,0,1,1,.277.73L111.29,17.18a.389.389,0,0,1-.139.026Z" transform="translate(-44.306)" fill="#f15921"/>
      <path id="Path_11951" data-name="Path 11951" d="M158.606,24.723a3,3,0,0,1-2.8-1.928.39.39,0,0,1,.73-.276,2.209,2.209,0,1,0,4.13-1.566.39.39,0,0,1,.73-.277,2.989,2.989,0,0,1-2.791,4.05Z" transform="translate(-91.637 -18.292)" fill="#f15921"/>
      <path id="Path_11952" data-name="Path 11952" d="M322.532,7.416a.387.387,0,0,1-.161-.035l-1.18-.536a.39.39,0,1,1,.322-.711l.824.373,1.139-2.517-4.042-1.826a.39.39,0,0,1,.322-.711l4.4,1.988a.391.391,0,0,1,.195.516l-1.461,3.228a.391.391,0,0,1-.355.23Z" transform="translate(-248.069 -0.092)" fill="#f15921"/>
      <path id="Path_11953" data-name="Path 11953" d="M63.672,89.064a.389.389,0,0,1-.161-.035l-3.229-1.461a.39.39,0,0,1-.2-.516l1.988-4.4a.39.39,0,0,1,.711.322L60.96,87.019l2.517,1.139.373-.824a.39.39,0,1,1,.711.322l-.534,1.18a.391.391,0,0,1-.355.23Z" transform="translate(0 -77.637)" fill="#f15921"/>
    </g>
  </g>
</svg>
