<svg xmlns="http://www.w3.org/2000/svg" width="34" height="34" viewBox="0 0 34 34">
  <g id="Group_41245" data-name="Group 41245" transform="translate(-262 -267)">
    <g id="Ellipse_1277" data-name="Ellipse 1277" transform="translate(262 267)" fill="#fff" stroke="#f15921" stroke-width="1">
      <circle cx="17" cy="17" r="17" stroke="none"/>
      <circle cx="17" cy="17" r="16.5" fill="none"/>
    </g>
    <g id="noun-monitor-and-tablet-68361" transform="translate(266.994 213.369)">
      <path id="Path_11696" data-name="Path 11696" d="M12.671,75.593H1.256a1.253,1.253,0,0,1-1.25-1.251V64.88a1.252,1.252,0,0,1,1.25-1.25H15.643a1.252,1.252,0,0,1,1.25,1.25v2.268a.352.352,0,0,1-.7,0V64.88a.547.547,0,0,0-.546-.547H1.256a.547.547,0,0,0-.547.547v9.462a.547.547,0,0,0,.547.546H12.671a.352.352,0,0,1,0,.7Z" transform="translate(0 0)" fill="#f15921"/>
      <path id="Path_11697" data-name="Path 11697" d="M26.438,106.764H10.957a.352.352,0,1,1,0-.7H26.438a.352.352,0,1,1,0,.7Z" transform="translate(-10.248 -41.022)" fill="#f15921"/>
      <path id="Path_11698" data-name="Path 11698" d="M22.92,340.1H10.957a.352.352,0,0,1,0-.7H22.92a.352.352,0,0,1,0,.7Z" transform="translate(-10.248 -266.622)" fill="#f15921"/>
      <path id="Path_11699" data-name="Path 11699" d="M183.657,406.508h-4.21a.355.355,0,0,1-.345-.426l.6-2.815a.352.352,0,0,1,.344-.279h3a.352.352,0,0,1,.344.279l.579,2.723a.337.337,0,0,1,.041.165.351.351,0,0,1-.351.354Zm-3.775-.7h3.327l-.45-2.111h-2.428l-.45,2.111Z" transform="translate(-173.149 -328.1)" fill="#f15921"/>
      <path id="Path_11700" data-name="Path 11700" d="M165.066,488.584h-5.63a.352.352,0,1,1,0-.7h5.63a.352.352,0,1,1,0,.7Z" transform="translate(-153.803 -410.176)" fill="#f15921"/>
      <path id="Path_11701" data-name="Path 11701" d="M391.314,180.957h-8.444a1.057,1.057,0,0,1-1.055-1.055v-9.148a1.057,1.057,0,0,1,1.055-1.055h8.444a1.057,1.057,0,0,1,1.055,1.055V179.9A1.057,1.057,0,0,1,391.314,180.957ZM382.869,170.4a.352.352,0,0,0-.352.352V179.9a.353.353,0,0,0,.352.352h8.444a.353.353,0,0,0,.352-.352v-9.148a.352.352,0,0,0-.352-.352Z" transform="translate(-369.143 -102.549)" fill="#f15921"/>
      <path id="Path_11702" data-name="Path 11702" d="M431.634,219.157H424.6a.353.353,0,0,1-.352-.352v-6.333a.352.352,0,0,1,.352-.352h7.037a.352.352,0,0,1,.352.352v6.333A.353.353,0,0,1,431.634,219.157Zm-6.685-.7h6.333v-5.63h-6.333Z" transform="translate(-410.166 -143.564)" fill="#f15921"/>
      <path id="Path_11703" data-name="Path 11703" d="M520.759,446.164h-.7a.352.352,0,0,1,0-.7h.7a.352.352,0,1,1,0,.7Z" transform="translate(-502.458 -369.163)" fill="#f15921"/>
    </g>
  </g>
</svg>
