<svg xmlns="http://www.w3.org/2000/svg" width="34" height="34" viewBox="0 0 34 34">
  <g id="Group_41247" data-name="Group 41247" transform="translate(-262 -403)">
    <g id="Ellipse_1279" data-name="Ellipse 1279" transform="translate(262 403)" fill="#fff" stroke="#f15921" stroke-width="1">
      <circle cx="17" cy="17" r="17" stroke="none"/>
      <circle cx="17" cy="17" r="16.5" fill="none"/>
    </g>
    <g id="noun-car-2770248" transform="translate(265.002 274.496)">
      <path id="Path_11872" data-name="Path 11872" d="M28.984,145.223v4.031a.742.742,0,0,1-.768.672h-2.4a2.739,2.739,0,0,1-5.471,0h-9.5a2.739,2.739,0,0,1-5.471,0H.862a.817.817,0,1,1,0-1.632h.384c.288-4.607,3.455-5.471,7.391-5.471,3.167-5.759,13.917-5.759,17.084,0,1.536,0,2.975.672,3.263,2.4Zm-13.629-5.471c.48-.192,1.248,0,1.248.576v2.783a.809.809,0,0,1-.672.672H10.94c-.96-.1-.768-1.152-.288-1.632a10.467,10.467,0,0,1,4.7-2.4Zm-4.415,3.359h4.991l.1-2.688c-.1-.1-.384-.1-.576-.1-.96.288-4.511,1.632-4.511,2.783Zm8.254-3.359c-.48-.192-1.248,0-1.248.576v2.783a.809.809,0,0,0,.672.672H23.61c.96-.1.768-1.152.288-1.632a10.467,10.467,0,0,0-4.7-2.4Zm4.415,3.359a1.028,1.028,0,0,0-.192-.576,10.293,10.293,0,0,0-4.319-2.208h-.48v2.783c1.344,0,3.743.1,4.991,0Zm-.864,1.344h.864a.241.241,0,0,1,0,.48h-.864A.241.241,0,0,1,22.746,144.455Zm-7.486,0h.864c.384,0,.384.48,0,.48h-.864A.241.241,0,0,1,15.259,144.455Zm13.053,2.5h-.384a.867.867,0,0,1,0-1.728h.384a2.21,2.21,0,0,0-2.3-1.728h-.672l-.192-.384c-2.975-5.279-12.957-5.279-15.933,0l-.192.384H8.636c-2.4,0-4.511.288-5.759,1.728h.384a.864.864,0,1,1,0,1.728H2.11a12.725,12.725,0,0,0-.288,2.016H.862a.193.193,0,1,0,0,.384H5.373a2.791,2.791,0,0,1,2.783-2.3,2.692,2.692,0,0,1,2.688,2.3h9.5a2.719,2.719,0,0,1,2.783-2.3,2.692,2.692,0,0,1,2.688,2.3h2.4a.094.094,0,0,0,.1-.1v-2.3Zm-5.183,1.344a1.489,1.489,0,0,1,0,2.975A1.489,1.489,0,1,1,23.13,148.294Zm-14.973,0a1.488,1.488,0,0,1,0,2.975A1.488,1.488,0,1,1,8.157,148.294Z" fill="#f15921" fill-rule="evenodd"/>
    </g>
  </g>
</svg>
