<svg xmlns="http://www.w3.org/2000/svg" width="34" height="34" viewBox="0 0 34 34">
  <g id="Group_41248" data-name="Group 41248" transform="translate(-262 -471)">
    <g id="Ellipse_1280" data-name="Ellipse 1280" transform="translate(262 471)" fill="#fff" stroke="#f15921" stroke-width="1">
      <circle cx="17" cy="17" r="17" stroke="none"/>
      <circle cx="17" cy="17" r="16.5" fill="none"/>
    </g>
    <g id="noun-property-1374682" transform="translate(198.004 477.217)">
      <path id="Path_11744" data-name="Path 11744" d="M91.825,7,86.908,2.715a.349.349,0,0,0-.432,0L82.123,6.536V4.376a.345.345,0,0,0-.133-.266L76.242-.142a.3.3,0,0,0-.4,0L70.129,4.11A.5.5,0,0,0,70,4.376V21.387a.314.314,0,0,0,.332.332H91.592a.314.314,0,0,0,.332-.332V7.267a.864.864,0,0,0-.1-.266Zm-5.15-3.588,4.02,3.522h-8.04ZM76.043.522l4.718,3.522H71.325ZM70.66,4.709h10.8V21.055H70.66ZM84.449,21.055V14.344h4.486v6.711Zm6.811,0H89.6V14.012a.314.314,0,0,0-.332-.332h-5.15a.314.314,0,0,0-.332.332v7.044H82.123V7.6H91.26Z" transform="translate(0 0)" fill="#f15921"/>
      <path id="Path_11745" data-name="Path 11745" d="M116.794,158.67H113.6a.314.314,0,0,0-.332.332v3.156a.314.314,0,0,0,.332.332h3.19a.314.314,0,0,0,.332-.332V159A.333.333,0,0,0,116.794,158.67Zm-.332,3.156h-2.525v-2.492h2.525Z" transform="translate(-41.582 -152.666)" fill="#f15921"/>
      <path id="Path_11746" data-name="Path 11746" d="M241.524,158.67h-3.19A.314.314,0,0,0,238,159v3.156a.314.314,0,0,0,.332.332h3.19a.314.314,0,0,0,.332-.332V159A.333.333,0,0,0,241.524,158.67Zm-.332,3.156h-2.525v-2.492h2.525Z" transform="translate(-161.428 -152.666)" fill="#f15921"/>
      <path id="Path_11747" data-name="Path 11747" d="M398.733,237.74h2.725a.314.314,0,0,0,.332-.332v-2.89a.314.314,0,0,0-.332-.332H398.7a.314.314,0,0,0-.332.332v2.89a.39.39,0,0,0,.365.332Zm.332-2.89h2.06v2.226h-2.093V234.85Z" transform="translate(-315.513 -225.224)" fill="#f15921"/>
      <path id="Path_11748" data-name="Path 11748" d="M506.458,237.74h2.758a.314.314,0,0,0,.332-.332v-2.89a.314.314,0,0,0-.332-.332h-2.758a.314.314,0,0,0-.332.332v2.89A.357.357,0,0,0,506.458,237.74Zm.332-2.89h2.093v2.226H506.79Z" transform="translate(-419.052 -225.224)" fill="#f15921"/>
      <path id="Path_11749" data-name="Path 11749" d="M116.794,285.09H113.6a.314.314,0,0,0-.332.332v3.156a.314.314,0,0,0,.332.332h3.19a.314.314,0,0,0,.332-.332v-3.156A.357.357,0,0,0,116.794,285.09Zm-.332,3.156h-2.525v-2.492h2.525Z" transform="translate(-41.582 -274.135)" fill="#f15921"/>
      <path id="Path_11750" data-name="Path 11750" d="M241.524,285.09h-3.19a.314.314,0,0,0-.332.332v3.156a.314.314,0,0,0,.332.332h3.19a.314.314,0,0,0,.332-.332v-3.156A.357.357,0,0,0,241.524,285.09Zm-.332,3.156h-2.525v-2.492h2.525Z" transform="translate(-161.428 -274.135)" fill="#f15921"/>
      <path id="Path_11751" data-name="Path 11751" d="M116.794,412.36H113.6a.314.314,0,0,0-.332.332v3.156a.314.314,0,0,0,.332.332h3.19a.314.314,0,0,0,.332-.332v-3.156A.333.333,0,0,0,116.794,412.36Zm-.332,3.156h-2.525v-2.492h2.525Z" transform="translate(-41.582 -396.422)" fill="#f15921"/>
      <path id="Path_11752" data-name="Path 11752" d="M241.524,412.36h-3.19a.314.314,0,0,0-.332.332v3.156a.314.314,0,0,0,.332.332h3.19a.314.314,0,0,0,.332-.332v-3.156A.333.333,0,0,0,241.524,412.36Zm-.332,3.156h-2.525v-2.492h2.525Z" transform="translate(-161.428 -396.422)" fill="#f15921"/>
      <path id="Path_11753" data-name="Path 11753" d="M200.148,63.454h1.03a.332.332,0,1,0,0-.664h-1.03a.314.314,0,0,0-.332.332A.333.333,0,0,0,200.148,63.454Z" transform="translate(-124.736 -60.539)" fill="#f15921"/>
      <path id="Path_11754" data-name="Path 11754" d="M475.908,136.426h.93a.332.332,0,1,0,0-.664h-.93a.314.314,0,0,0-.332.332A.333.333,0,0,0,475.908,136.426Z" transform="translate(-389.698 -130.654)" fill="#f15921"/>
    </g>
  </g>
</svg>
