<svg xmlns="http://www.w3.org/2000/svg" width="34" height="34" viewBox="0 0 34 34">
  <g id="Group_41250" data-name="Group 41250" transform="translate(-262 -607)">
    <g id="Ellipse_1282" data-name="Ellipse 1282" transform="translate(262 607)" fill="#fff" stroke="#f15921" stroke-width="1">
      <circle cx="17" cy="17" r="17" stroke="none"/>
      <circle cx="17" cy="17" r="16.5" fill="none"/>
    </g>
    <g id="noun-furniture-1047931" transform="translate(184.057 525.766)">
      <path id="Path_11909" data-name="Path 11909" d="M105.045,95.035a1.865,1.865,0,0,0-.772.169v-.188a2.782,2.782,0,0,0-2.78-2.782H89.251a2.782,2.782,0,0,0-2.773,2.782v.159a1.885,1.885,0,0,0-1.436,3.482v4.493a.241.241,0,0,0,.241.241h1.257v.869h0a.241.241,0,0,0,.241.241H88.33a.242.242,0,0,0,.2-.109l.652-1h12.256l.652,1a.241.241,0,0,0,.2.109h1.547a.241.241,0,0,0,.241-.241v-.869h1.448a.241.241,0,0,0,.241-.241V98.657a1.885,1.885,0,0,0-.724-3.62Zm-18.083-.019a2.3,2.3,0,0,1,2.3-2.3h12.234a2.3,2.3,0,0,1,2.3,2.3v.507h0a1.9,1.9,0,0,0-.622,1.3v2.15H87.649V96.8a1.88,1.88,0,0,0-.688-1.344Zm16.2,4.44v1.327H87.652V99.456ZM88.2,104.021H87.024v-.627H88.61Zm15.4,0h-1.178l-.41-.627H103.6Zm1.86-5.762h0a.241.241,0,0,0-.171.241v4.409H85.526V98.488a.241.241,0,0,0-.171-.241,1.4,1.4,0,1,1,1.81-1.448V101a.241.241,0,0,0,.241.241h16a.241.241,0,0,0,.241-.241V96.814a1.4,1.4,0,1,1,1.81,1.421Z" fill="#f15921"/>
    </g>
  </g>
</svg>
