<svg xmlns="http://www.w3.org/2000/svg" width="105.027" height="92.638" viewBox="0 0 105.027 92.638">
  <g id="ntro_pattern5" transform="translate(0 0)">
    <path id="Path_12028" data-name="Path 12028" d="M.119,75.833c5.3,29.3,58.95,13.935,88.049,1.433a10.979,10.979,0,0,0,5.383-4.29c3.441-5.909,3.409-14.13,2.361-20.829a25.24,25.24,0,0,1,2.253-15.584c21.806-41.548-13.094-39.9-38.61-32.35a22.871,22.871,0,0,1-11.7.212C24.036-1.155,19,12.648,19.6,22.521a17.284,17.284,0,0,0,1.171,4.649l0,.009c1.638,4.644,1.3,8.066.18,10.461-1.757,3.762-6.764,5.27-7.174,9.4A53.137,53.137,0,0,0,13.707,55C1.243,63.406-.545,72.391.119,75.833Z" fill="#f15921" opacity="0.8"/>
  </g>
</svg>
