<svg xmlns="http://www.w3.org/2000/svg" width="29.169" height="18.799" viewBox="0 0 29.169 18.799">
  <g id="noun-ads-2342773" transform="translate(-98.005 -117.6)">
    <path id="Path_11979" data-name="Path 11979" d="M118.94,117.607a.953.953,0,0,0-.152.04L98.7,123.621a.972.972,0,0,0-.7.931V128.8a.972.972,0,0,0,.7.931l2.784.83,1.407,5.113h0a.972.972,0,0,0,.941.719h3.24a.972.972,0,0,0,.941-1.225l-.8-2.906,11.571,3.442h0a.972.972,0,0,0,1.245-.931v-6.8a.972.972,0,1,0-1.944,0v5.5l-18.142-5.386v-2.814l18.142-5.386v4.849a.972.972,0,1,0,1.944,0v-6.156a.972.972,0,0,0-1.093-.972Zm6.833,1.934a.971.971,0,0,0-.425.152l-2.592,1.62h0a.973.973,0,1,0,1.032,1.65l2.592-1.62a.972.972,0,0,0-.607-1.8Zm-2.6,6.165a.973.973,0,1,0,.1,1.944h2.915a.972.972,0,1,0,0-1.944h-2.915a.946.946,0,0,0-.1,0Zm.061,4.525h0a.972.972,0,0,0-.476,1.8l2.592,1.62h0a.973.973,0,1,0,1.033-1.65l-2.592-1.62h0a.971.971,0,0,0-.557-.152Zm-19.539.992,1.316.385.79,2.845h-1.215l-.891-3.23Z"/>
  </g>
</svg>
