<svg xmlns="http://www.w3.org/2000/svg" width="19.462" height="19.463" viewBox="0 0 19.462 19.463">
  <g id="noun-blog-5081475" transform="translate(-99.164 -29.164)">
    <path id="Path_12017" data-name="Path 12017" d="M118.626,31.653a2.488,2.488,0,0,0-2.489-2.489H101.653a2.488,2.488,0,0,0-2.489,2.489V46.137a2.488,2.488,0,0,0,2.489,2.489h14.483a2.488,2.488,0,0,0,2.489-2.489Zm-1.358,0V46.137a1.131,1.131,0,0,1-1.131,1.131H101.654a1.131,1.131,0,0,1-1.131-1.131V31.653a1.131,1.131,0,0,1,1.131-1.131h14.483a1.131,1.131,0,0,1,1.131,1.131Z" fill-rule="evenodd"/>
    <path id="Path_12018" data-name="Path 12018" d="M99.849,147.188h18.1a.679.679,0,1,0,0-1.358h-18.1a.679.679,0,1,0,0,1.358Z" transform="translate(-0.006 -112.14)" fill-rule="evenodd"/>
    <path id="Path_12019" data-name="Path 12019" d="M158.179,88.858h.905a.679.679,0,0,0,0-1.358h-.905a.679.679,0,0,0,0,1.358Z" transform="translate(-56.073 -56.073)" fill-rule="evenodd"/>
    <path id="Path_12020" data-name="Path 12020" d="M239.849,88.858h.905a.679.679,0,0,0,0-1.358h-.905a.679.679,0,0,0,0,1.358Z" transform="translate(-134.574 -56.073)" fill-rule="evenodd"/>
    <path id="Path_12021" data-name="Path 12021" d="M321.509,88.858h.905a.679.679,0,0,0,0-1.358h-.905a.679.679,0,0,0,0,1.358Z" transform="translate(-213.066 -56.073)" fill-rule="evenodd"/>
    <path id="Path_12022" data-name="Path 12022" d="M193.179,240.528h4.526a.679.679,0,1,0,0-1.358h-4.526a.679.679,0,0,0,0,1.358Z" transform="translate(-89.715 -201.859)" fill-rule="evenodd"/>
    <path id="Path_12023" data-name="Path 12023" d="M193.179,333.858h6.789a.679.679,0,1,0,0-1.358h-6.789a.679.679,0,1,0,0,1.358Z" transform="translate(-89.715 -291.568)" fill-rule="evenodd"/>
    <path id="Path_12024" data-name="Path 12024" d="M426.509,333.858h.905a.679.679,0,0,0,0-1.358h-.905a.679.679,0,0,0,0,1.358Z" transform="translate(-313.993 -291.568)" fill-rule="evenodd"/>
    <path id="Path_12025" data-name="Path 12025" d="M193.179,403.858h9.957a.679.679,0,0,0,0-1.358h-9.957a.679.679,0,1,0,0,1.358Z" transform="translate(-89.715 -358.853)" fill-rule="evenodd"/>
  </g>
</svg>
