<svg xmlns="http://www.w3.org/2000/svg" width="16.005" height="16.156" viewBox="0 0 16.005 16.156">
  <g id="noun-call-1929650" transform="translate(-100.346 -27.99)">
    <path id="Path_1016" data-name="Path 1016" d="M113.585,98.122a2.243,2.243,0,0,0-3.169.159l-.488.54a2.236,2.236,0,0,0-.463.789l-.044.13-.128-.051a9.449,9.449,0,0,1-5-4.585l-.069-.139.149-.045a2.239,2.239,0,0,0,1.016-.643l.488-.539a2.244,2.244,0,0,0-.159-3.17l-.824-.745a2.244,2.244,0,0,0-3.169.158l-.488.54a2.235,2.235,0,0,0-.179.227l-.022.025a2.733,2.733,0,0,0-.626,2.527,12.589,12.589,0,0,0,11.19,10.12,3.16,3.16,0,0,0,1.929-.4,2.253,2.253,0,0,0,.548-.442l.488-.54a2.247,2.247,0,0,0-.159-3.169Z" transform="translate(0 -59.291)" fill="#f15921"/>
    <path id="Path_1017" data-name="Path 1017" d="M343.773,27.99a.523.523,0,0,0,0,1.046,6.657,6.657,0,0,1,6.65,6.65.523.523,0,0,0,1.046,0,7.7,7.7,0,0,0-7.7-7.7Z" transform="translate(-235.118)" fill="#f15921"/>
    <path id="Path_1018" data-name="Path 1018" d="M345.315,113.09a.523.523,0,0,0,1.046,0,5.226,5.226,0,0,0-5.221-5.22.523.523,0,0,0,0,1.046,4.179,4.179,0,0,1,4.174,4.174Z" transform="translate(-232.57 -77.32)" fill="#f15921"/>
  </g>
</svg>
