<svg xmlns="http://www.w3.org/2000/svg" width="54.51" height="45.425" viewBox="0 0 54.51 45.425">
  <g id="noun-camera-1560250" transform="translate(-114.801 -84.002)" opacity="0.4">
    <path id="Path_11962" data-name="Path 11962" d="M122.588,129.427a7.813,7.813,0,0,1-7.787-7.787V98.278a7.813,7.813,0,0,1,7.787-7.787h6.469l2.109-5.252A1.947,1.947,0,0,1,132.971,84h18.17a1.947,1.947,0,0,1,1.805,1.237l2.109,5.252h6.469a7.813,7.813,0,0,1,7.787,7.787V121.64a7.813,7.813,0,0,1-7.787,7.787Zm0-3.894h38.936a3.843,3.843,0,0,0,3.894-3.894V98.278a3.843,3.843,0,0,0-3.894-3.894h-7.787a1.948,1.948,0,0,1-1.8-1.217L149.823,87.9H134.289l-2.109,5.273h0a1.948,1.948,0,0,1-1.8,1.217h-7.787a3.843,3.843,0,0,0-3.894,3.894V121.64a3.843,3.843,0,0,0,3.894,3.894Zm19.468-3.245a12.33,12.33,0,1,1,12.33-12.33A12.359,12.359,0,0,1,142.056,122.288Zm0-3.894a8.436,8.436,0,1,0-8.436-8.436A8.407,8.407,0,0,0,142.056,118.395Z"/>
  </g>
</svg>
