<svg xmlns="http://www.w3.org/2000/svg" width="27" height="27" viewBox="0 0 27 27">
  <g id="Group_41284" data-name="Group 41284" transform="translate(0.038)">
    <circle id="Ellipse_1283" data-name="Ellipse 1283" cx="13.5" cy="13.5" r="13.5" transform="translate(-0.038)" fill="#fff"/>
    <g id="noun-x-2289953" transform="translate(5.06 5.033)">
      <path id="Path_11958" data-name="Path 11958" d="M82.1,19.909l3.5-3.5-3.5-3.481a.583.583,0,0,1,.824-.824l3.5,3.481L89.909,12.1a.583.583,0,0,1,.824.824l-3.481,3.481,3.481,3.5a.583.583,0,1,1-.824.824l-3.481-3.5-3.5,3.5a.583.583,0,1,1-.824-.824ZM86.428,7.94a8.477,8.477,0,1,0,8.467,8.467A8.484,8.484,0,0,0,86.428,7.94Zm0,.412a8.065,8.065,0,1,1-8.075,8.055A8.053,8.053,0,0,1,86.428,8.352Z" transform="translate(-77.94 -7.94)" fill="#d80101" fill-rule="evenodd"/>
    </g>
  </g>
</svg>
