<svg id="google" xmlns="http://www.w3.org/2000/svg" width="17.395" height="17.395" viewBox="0 0 17.395 17.395">
  <path id="Path_4307" data-name="Path 4307" d="M4.077,105.508a4.592,4.592,0,0,1,.65-2.36v-2.932H1.795a8.7,8.7,0,0,0,0,10.586H4.727v-2.932A4.592,4.592,0,0,1,4.077,105.508Z" transform="translate(0 -96.81)" fill="#fbbd00"/>
  <path id="Path_4308" data-name="Path 4308" d="M198.038,373.608,196,375.646l2.038,2.038a8.632,8.632,0,0,0,5.293-1.795v-2.929H200.4A4.62,4.62,0,0,1,198.038,373.608Z" transform="translate(-189.341 -360.29)" fill="#0f9d58"/>
  <path id="Path_4309" data-name="Path 4309" d="M55.755,325.477l-2.932,2.932a8.827,8.827,0,0,0,.753.857,8.641,8.641,0,0,0,6.15,2.547v-4.077A4.622,4.622,0,0,1,55.755,325.477Z" transform="translate(-51.028 -314.419)" fill="#31aa52"/>
  <path id="Path_4310" data-name="Path 4310" d="M264.7,199.318a8.772,8.772,0,0,0-.142-1.576l-.076-.418H256V201.4h4.126a4.6,4.6,0,0,1-1.763,1.89l2.929,2.929a8.831,8.831,0,0,0,.857-.753A8.641,8.641,0,0,0,264.7,199.318Z" transform="translate(-247.302 -190.62)" fill="#3c79e6"/>
  <path id="Path_4311" data-name="Path 4311" d="M201.306,5.43l.36.36,2.883-2.883-.36-.36A8.641,8.641,0,0,0,198.038,0L196,2.038l2.039,2.038A4.59,4.59,0,0,1,201.306,5.43Z" transform="translate(-189.341 0)" fill="#cf2d48"/>
  <path id="Path_4312" data-name="Path 4312" d="M59.725,4.077V0a8.641,8.641,0,0,0-6.15,2.547,8.829,8.829,0,0,0-.753.857l2.932,2.932A4.623,4.623,0,0,1,59.725,4.077Z" transform="translate(-51.027 0)" fill="#eb4132"/>
</svg>
