<svg xmlns="http://www.w3.org/2000/svg" width="18.243" height="18.244" viewBox="0 0 18.243 18.244">
  <g id="noun-help-5079955" transform="translate(-105 -30.471)">
    <path id="Path_12014" data-name="Path 12014" d="M114.122,31.34a8.253,8.253,0,1,0,8.253,8.253A8.253,8.253,0,0,0,114.122,31.34ZM105,39.593a9.122,9.122,0,1,1,9.122,9.122A9.122,9.122,0,0,1,105,39.593Z" fill-rule="evenodd"/>
    <path id="Path_12015" data-name="Path 12015" d="M270.506,129.2a1.3,1.3,0,0,0-1.3,1.3v.869h-.869v-.869a2.172,2.172,0,0,1,2.172-2.172h1.737a2.172,2.172,0,0,1,2.172,2.172v.924a2.172,2.172,0,0,1-.781,1.668l-1.356,1.13a1.3,1.3,0,0,0-.469,1v1.358h-.869v-1.358a2.172,2.172,0,0,1,.781-1.668l1.356-1.13a1.3,1.3,0,0,0,.469-1v-.924a1.3,1.3,0,0,0-1.3-1.3Z" transform="translate(-157.253 -94.219)" fill-rule="evenodd"/>
    <path id="Path_12016" data-name="Path 12016" d="M338.33,397.726v-1.062h.869v1.062Z" transform="translate(-224.643 -352.559)" fill-rule="evenodd"/>
  </g>
</svg>
