<svg id="instagram_1_" data-name="instagram (1)" xmlns="http://www.w3.org/2000/svg" xmlns:xlink="http://www.w3.org/1999/xlink" width="18.744" height="18.744" viewBox="0 0 18.744 18.744">
  <defs>
    <linearGradient id="linear-gradient" x1="0.5" y1="0.008" x2="0.5" y2="0.998" gradientUnits="objectBoundingBox">
      <stop offset="0" stop-color="#e09b3d"/>
      <stop offset="0.3" stop-color="#c74c4d"/>
      <stop offset="0.6" stop-color="#c21975"/>
      <stop offset="1" stop-color="#7024c4"/>
    </linearGradient>
    <linearGradient id="linear-gradient-2" y1="-0.451" y2="1.462" xlink:href="#linear-gradient"/>
    <linearGradient id="linear-gradient-3" y1="-1.396" y2="6.586" xlink:href="#linear-gradient"/>
  </defs>
  <path id="Path_4498" data-name="Path 4498" d="M13.16,0H5.584A5.59,5.59,0,0,0,0,5.584V13.16a5.59,5.59,0,0,0,5.584,5.584H13.16a5.59,5.59,0,0,0,5.584-5.584V5.584A5.59,5.59,0,0,0,13.16,0Zm3.7,13.16a3.7,3.7,0,0,1-3.7,3.7H5.584a3.7,3.7,0,0,1-3.7-3.7V5.584a3.7,3.7,0,0,1,3.7-3.7H13.16a3.7,3.7,0,0,1,3.7,3.7V13.16Z" fill="url(#linear-gradient)"/>
  <path id="Path_4499" data-name="Path 4499" d="M137.848,133a4.848,4.848,0,1,0,4.848,4.848A4.853,4.853,0,0,0,137.848,133Zm0,7.81a2.962,2.962,0,1,1,2.962-2.962A2.962,2.962,0,0,1,137.848,140.81Z" transform="translate(-128.476 -128.476)" fill="url(#linear-gradient-2)"/>
  <ellipse id="Ellipse_36" data-name="Ellipse 36" cx="1.162" cy="1.162" rx="1.162" ry="1.162" transform="translate(13.068 3.399)" fill="url(#linear-gradient-3)"/>
</svg>
