<svg id="noun-log-out-1106123" xmlns="http://www.w3.org/2000/svg" width="18.866" height="26.379" viewBox="0 0 18.866 26.379">
  <path id="Path_12026" data-name="Path 12026" d="M359.795,195.265c0-.015.015-.031.015-.046s.015-.031.015-.046c.015-.015.015-.031.031-.062a.053.053,0,0,1,.015-.031.333.333,0,0,1,.061-.077l2.9-2.9a.543.543,0,0,1,.768.768l-1.982,1.982h6.529a.538.538,0,0,1,0,1.076h-6.483l1.982,1.982a.543.543,0,0,1-.768.768l-2.9-2.9a.272.272,0,0,1-.062-.077.056.056,0,0,1-.015-.046c-.015-.015-.015-.031-.031-.062,0-.015-.015-.031-.015-.046s-.015-.031-.015-.046a.418.418,0,0,1-.046-.231Z" transform="translate(-359.795 -183.573)"/>
  <path id="Path_12027" data-name="Path 12027" d="M179.157,62.015h2.381V42.842a.525.525,0,0,1,.369-.507l5.009-1.782h-7.759v9.1h-1.076V40.015a.544.544,0,0,1,.538-.538h11.569c.031,0,.062.015.092.015.015,0,.015,0,.031.015a.387.387,0,0,1,.108.062l.015.015c.031.015.046.046.062.062l.031.031c.015.015.031.046.046.062a.053.053,0,0,0,.015.031c.015.031.015.046.031.077,0,.015,0,.015.015.031a.336.336,0,0,1,.015.123V62.522a.194.194,0,0,1-.015.092v.031c0,.015-.015.046-.015.062s-.015.015-.015.031c-.015.015-.015.046-.031.062l-.015.015a.269.269,0,0,1-.062.077l-.015.015a.212.212,0,0,1-.062.046c-.015,0-.015.015-.031.015-.015.015-.031.015-.062.031-.015,0-.015.015-.031.015h-.015l-8.02,2.811a.767.767,0,0,1-.184.031.554.554,0,0,1-.307-.092.56.56,0,0,1-.23-.446V63.044h-2.919a.544.544,0,0,1-.538-.538V52.874h1.076Zm3.472,0V64.6l4.3-1.506,2.627-.922V40.783l-6.929,2.443Z" transform="translate(-171.783 -39.477)"/>
</svg>
