<svg width="321" height="340" viewBox="0 0 321 340" fill="none" xmlns="http://www.w3.org/2000/svg"><g id="Man thinking-amico 1" clip-path="url(#clip0_50_9)"><g id="Man thinking-amico"><g id="freepik--Floor--inject-11"><path id="freepik--floor--inject-11" d="M273.968 180.859C336.644 217.044 336.637 275.679 273.968 311.893C211.299 348.107 109.681 348.078 47.005 311.893C-15.671 275.708 -15.664 217.073 47.005 180.859C109.674 144.645 211.291 144.672 273.968 180.859Z" fill="#FAFAFA"/></g><g id="freepik--Plant--inject-11"><g id="freepik--Plants--inject-11"><path id="Path 11640" d="M205.638 293.68C205.69 293.661 205.737 293.632 205.777 293.594C205.817 293.557 205.849 293.511 205.871 293.461C211.808 278.873 227.877 271.861 234.74 268.881C235.849 268.4 236.724 268.013 237.3 267.714C238.503 267.158 239.539 266.298 240.307 265.218C241.074 264.138 241.546 262.877 241.676 261.558C241.724 260.401 241.466 259.252 240.926 258.227C240.387 257.202 239.586 256.338 238.605 255.723C233.499 252.142 222.391 256.496 213.383 265.635C200.765 278.443 201.115 290.813 201.122 290.935C201.123 290.999 201.141 291.063 201.172 291.119C201.204 291.175 201.249 291.222 201.304 291.256L205.286 293.67C205.33 293.698 205.38 293.715 205.432 293.721C205.502 293.729 205.572 293.714 205.632 293.677L205.638 293.68ZM213.96 266.153C222.713 257.276 233.347 252.958 238.183 256.328C239.056 256.873 239.77 257.639 240.251 258.548C240.733 259.458 240.965 260.479 240.925 261.507C240.793 262.691 240.356 263.821 239.659 264.787C238.961 265.754 238.026 266.523 236.943 267.021C236.389 267.313 235.484 267.685 234.427 268.166C227.542 271.166 211.51 278.137 205.327 292.746L201.921 290.675C201.933 289.034 202.48 277.809 213.96 266.153Z" fill="#F15921"/><path id="Path 11641" d="M203.195 292.339H203.144C203.046 292.312 202.962 292.246 202.911 292.158C202.861 292.069 202.847 291.964 202.874 291.865C207.892 274.199 225.135 260.975 234.362 259.976C234.412 259.97 234.464 259.974 234.512 259.988C234.561 260.002 234.607 260.026 234.646 260.058C234.686 260.09 234.718 260.129 234.742 260.174C234.766 260.219 234.781 260.268 234.785 260.319C234.791 260.37 234.787 260.421 234.773 260.47C234.759 260.52 234.735 260.566 234.703 260.606C234.671 260.646 234.632 260.679 234.587 260.703C234.542 260.728 234.493 260.744 234.442 260.749C225.325 261.741 208.366 275.337 203.625 292.049C203.602 292.142 203.546 292.224 203.466 292.278C203.387 292.332 203.29 292.354 203.195 292.341V292.339Z" fill="#F15921"/><path id="Path 11642" d="M201.473 291.281C201.419 291.273 201.366 291.253 201.32 291.223L198.658 289.451C198.605 289.416 198.562 289.368 198.531 289.312C198.501 289.256 198.484 289.194 198.483 289.13C198.483 288.948 198.403 270.63 209.044 249.203C214.463 238.262 224.565 229.108 233.063 227.365C234.873 226.903 236.767 226.879 238.587 227.297C240.408 227.714 242.102 228.56 243.53 229.765C244.255 230.297 244.848 230.988 245.263 231.786C245.678 232.583 245.903 233.466 245.922 234.365C245.834 239.004 239.474 244.015 232.735 249.325C228.023 253.045 223.151 256.881 220.299 260.711C220.269 260.752 220.232 260.788 220.188 260.814C220.145 260.841 220.096 260.858 220.046 260.866C219.996 260.873 219.944 260.87 219.895 260.858C219.846 260.845 219.799 260.822 219.759 260.791C219.717 260.761 219.682 260.722 219.656 260.678C219.629 260.634 219.612 260.585 219.604 260.534C219.597 260.483 219.599 260.431 219.612 260.382C219.625 260.332 219.648 260.285 219.679 260.244C222.597 256.335 227.505 252.461 232.254 248.712C238.818 243.526 245.062 238.617 245.142 234.35C245.117 233.568 244.914 232.801 244.547 232.11C244.181 231.418 243.661 230.82 243.027 230.36C241.688 229.236 240.101 228.447 238.397 228.059C236.693 227.671 234.92 227.695 233.227 228.128C224.941 229.828 215.073 238.843 209.748 249.557C199.785 269.593 199.289 286.865 199.267 288.944L201.754 290.6C201.839 290.658 201.898 290.747 201.919 290.848C201.939 290.949 201.919 291.054 201.863 291.14C201.817 291.196 201.756 291.239 201.687 291.264C201.619 291.289 201.545 291.294 201.473 291.281Z" fill="#F15921"/><path id="Path 11643" d="M203.988 280.391C203.887 280.368 203.798 280.307 203.742 280.219C203.686 280.132 203.666 280.026 203.688 279.924C209.705 252.124 231.405 234.986 237.036 232.616C237.084 232.596 237.135 232.586 237.187 232.586C237.239 232.586 237.29 232.597 237.338 232.617C237.385 232.637 237.429 232.666 237.465 232.702C237.502 232.739 237.531 232.783 237.551 232.83C237.57 232.878 237.58 232.93 237.58 232.981C237.58 233.033 237.57 233.084 237.55 233.132C237.53 233.18 237.501 233.223 237.464 233.26C237.427 233.296 237.384 233.325 237.336 233.345C231.807 235.686 210.4 252.608 204.448 280.106C204.422 280.203 204.36 280.287 204.274 280.339C204.189 280.392 204.086 280.41 203.988 280.39V280.391Z" fill="#F15921"/></g></g><g id="freepik--Shadow--inject-11"><path id="freepik--shadow--inject-11" d="M157.375 324.549C189.271 324.549 215.128 309.619 215.128 291.201C215.128 272.783 189.271 257.853 157.375 257.853C125.479 257.853 99.622 272.783 99.622 291.201C99.622 309.619 125.479 324.549 157.375 324.549Z" fill="#F15921" fill-opacity="0.09"/></g><g id="freepik--speech-bubble--inject-11"><g id="freepik--thought-bubble--inject-11"><path id="Path 11645" opacity="0.84" d="M154.062 172.832C148.832 186.552 131.896 191.475 120.685 186.238C115.579 183.846 108.767 178.273 109.185 170.119C91.085 190.257 44.423 168.66 59.638 139.04C35.78 141.097 20.572 99.84 50.338 90.448C23.628 76.203 37.486 30.565 71.833 38.479C68.113 28.268 75.655 19.77 83.758 16.729C92.948 13.272 105.071 14.876 108.302 21.105C116.427 -4.044 150.935 -7.341 165.69 14.584C176.59 1.922 201.868 3.417 202.706 22.684C220.496 7.505 261.057 25.332 249.518 52.428C277.018 49.27 280.459 86.016 258.927 92.705C270.539 96.644 276.512 112.763 274.288 124.594C272.049 136.549 260.688 145.345 247.6 144.287C252.881 162.813 228.935 176.22 215.9 162.04C214.061 190.95 167.84 201.147 154.062 172.832Z" fill="#F15921"/><path id="Path 11646" d="M74.663 195.096C77.85 195.496 81.41 199.334 81.483 202.39C88.733 197.839 94.67 206.402 91.373 213.19C101.438 217.566 94.663 231.76 85.057 226.545C82.446 234.816 69.981 235.072 67.034 226.91C59.777 228.945 51.272 222.22 56.356 215.065C43.832 209.113 53.438 194.89 65.109 200.2C65.861 198.372 67.2259 196.862 68.9693 195.931C70.7128 194.999 72.7262 194.703 74.664 195.094L74.663 195.096Z" fill="#F15921" fill-opacity="0.51"/><path id="Path 11647" d="M89.003 240.669L89.103 240.924C89.7165 240.554 90.4242 240.371 91.1401 240.395C91.856 240.42 92.5494 240.652 93.136 241.063C93.4406 241.282 93.696 241.562 93.8856 241.885C94.0752 242.208 94.1948 242.568 94.2368 242.941C94.2787 243.313 94.242 243.69 94.129 244.048C94.0161 244.405 93.8294 244.735 93.581 245.016C94.1416 245.254 94.6288 245.637 94.9927 246.125C95.3566 246.613 95.5842 247.19 95.652 247.795C95.7405 248.376 95.6224 248.969 95.3186 249.471C95.0147 249.974 94.5442 250.354 93.989 250.545C93.5518 250.732 93.0797 250.824 92.6042 250.814C92.1288 250.804 91.6609 250.692 91.232 250.487C90.7974 251.089 90.2271 251.581 89.5674 251.922C88.9076 252.263 88.1769 252.444 87.4342 252.451C86.6915 252.457 85.9578 252.288 85.2922 251.959C84.6267 251.629 84.048 251.148 83.603 250.553C83.2258 250.763 82.8054 250.884 82.3741 250.905C81.9429 250.927 81.5124 250.849 81.1161 250.678C80.7197 250.507 80.3681 250.246 80.0884 249.918C79.8087 249.589 79.6084 249.2 79.503 248.781C79.3897 248.335 79.3835 247.869 79.4848 247.42C79.5861 246.971 79.7921 246.553 80.086 246.199C79.5822 245.99 79.1722 245.604 78.9328 245.114C78.6934 244.624 78.6412 244.063 78.786 243.537C79.0013 242.793 79.4811 242.153 80.135 241.737C80.75 241.32 81.5011 241.153 82.235 241.27C82.2859 240.457 82.6402 239.692 83.2277 239.128C83.8153 238.563 84.5933 238.239 85.408 238.221C86.1782 238.243 86.9261 238.485 87.5624 238.92C88.1987 239.354 88.6967 239.962 88.997 240.672L89.003 240.669Z" fill="#F15921" fill-opacity="0.51"/><path id="Path 11648" d="M106.715 255.526C106.789 256.028 106.697 256.54 106.452 256.985C106.813 256.981 107.163 257.107 107.439 257.34C107.714 257.573 107.896 257.897 107.952 258.254C107.95 258.466 107.896 258.674 107.796 258.861C107.695 259.047 107.551 259.207 107.376 259.326C107.022 259.56 106.611 259.694 106.187 259.713C106.096 259.71 106.006 259.73 105.924 259.771C105.84 259.85 105.779 259.951 105.749 260.063C105.616 260.406 105.381 260.7 105.075 260.905C104.77 261.11 104.409 261.216 104.041 261.209C103.673 261.202 103.316 261.082 103.019 260.865C102.722 260.648 102.498 260.345 102.379 259.997C101.907 260.201 101.387 260.267 100.879 260.187C100.52 260.139 100.186 259.975 99.9294 259.719C99.6725 259.464 99.5066 259.131 99.457 258.772C99.4235 258.581 99.4331 258.385 99.485 258.199C99.5369 258.012 99.6298 257.84 99.757 257.693C99.8842 257.547 100.042 257.432 100.22 257.355C100.398 257.277 100.59 257.241 100.784 257.248C100.564 257.068 100.402 256.828 100.316 256.558C100.231 256.287 100.226 255.997 100.303 255.724C100.392 255.453 100.549 255.21 100.759 255.017C100.969 254.824 101.225 254.689 101.503 254.624C101.779 254.565 102.065 254.565 102.341 254.626C102.617 254.686 102.877 254.805 103.103 254.974C103.294 254.564 103.622 254.233 104.031 254.039C104.44 253.845 104.903 253.799 105.342 253.909C105.711 254.003 106.042 254.209 106.289 254.499C106.536 254.789 106.687 255.148 106.721 255.528L106.715 255.526Z" fill="#F15921" fill-opacity="0.51"/></g></g><g id="transalte_2" style=" transform-origin: center; transform-box: fill-box; animation: translateY 2s linear infinite alternate;"><g id="freepik--character--inject-11"><g id="freepik--Bottom--inject-11"><path id="Path 11652" d="M192.721 270.224C191.744 258.7 192.655 253.849 191.481 235.855C191.342 231.238 191.116 226.293 190.752 221.902C189.527 207.132 187.178 202.102 186.93 199.255C186.93 199.255 186.93 181.531 185.595 149.19C184.96 133.982 180.489 129.424 176.842 121.39L132.167 121.89C129.804 142.028 129.942 179.38 130.322 199.934C130.522 210.401 135.322 262.413 135.428 263.704C135.778 268.27 135.428 270.079 133.628 272.019C129.901 276.089 124.482 279.984 119.77 283.543C120.499 285.337 126.159 285.206 128.96 283.806C132.624 281.853 136.111 279.586 139.383 277.03C143.234 274.112 148.172 271.778 148.183 267.424C148.202 267.161 148.244 266.9 148.307 266.644C148.351 264.098 153.967 230.525 154.361 221.823C154.697 214.339 153.632 201.663 153.632 201.663L157.622 175.879C157.622 175.879 160.153 189.292 163.322 202.042C165.911 212.421 170.463 226.112 173.38 238.891C176.217 253.61 180.251 264.069 181.017 271.444C181.243 273.209 183.453 290.488 184.328 294.444C185.203 298.4 193.883 298.405 194.364 291.585C194.676 287.021 192.904 272.39 192.721 270.224Z" fill="#C8856A"/><path id="Path 11653" d="M111.796 288.21C111.565 288.843 111.51 289.527 111.639 290.189C111.767 290.851 112.074 291.465 112.525 291.966C114.035 293.257 118.462 295.38 124.305 294.621C130.148 293.862 133.313 292.068 135.647 290.121C137.981 288.174 141.263 285.421 143.904 284.84C146.014 284.44 148.023 283.622 149.812 282.433C150.612 281.674 150.483 278.327 150.483 278.327L111.796 288.21Z" fill="#263238"/><path id="Path 11654" d="M148.411 265.395C148.411 265.395 148.849 265.395 149.002 266.195C149.184 267.121 149.381 269.842 149.768 271.301C150.376 273.974 150.573 276.724 150.351 279.456C150.03 281.177 146.026 282.374 143.473 283.344C140.464 284.655 137.671 286.413 135.187 288.559C131.579 291.193 127.313 292.776 122.86 293.132C117.025 293.22 113.276 291.673 112.109 289.573C110.65 286.998 111.795 285.51 118.477 282.425C119.739 281.842 124.177 279.225 125.698 278.275C127.302 277.277 128.822 276.15 130.242 274.905C130.954 274.269 131.634 273.597 132.277 272.892C132.945 272.266 133.515 271.543 133.969 270.748C134.042 270.566 134.093 270.361 134.159 270.179C134.348 269.674 134.495 269.154 134.597 268.625C134.706 268.071 134.772 267.261 135.326 266.933C136.083 266.623 136.91 266.525 137.718 266.649C138.584 266.709 139.445 266.831 140.293 267.014C141.278 267.233 142.416 267.32 142.999 268.239C143.387 268.98 143.578 269.809 143.553 270.646C143.553 271.033 143.553 271.426 143.553 271.813C143.553 271.981 143.48 272.28 143.713 272.207C143.946 272.134 144.187 271.558 144.267 271.361C144.449 270.931 144.573 270.461 144.767 270.033C144.991 269.534 145.27 269.062 145.599 268.625C145.912 268.231 146.267 267.871 146.657 267.553C147.054 267.336 147.437 267.092 147.802 266.824C148.143 266.419 148.355 265.921 148.411 265.395Z" fill="#37474F"/><path id="Path 11655" d="M117.398 282.959C125.822 283.528 128.477 288.699 128.835 291.901C126.92 292.622 124.905 293.046 122.861 293.156C117.026 293.244 113.036 291.697 111.876 289.597C110.512 287.175 111.434 285.213 117.398 282.959Z" fill="#FAFAFA"/><path id="Path 11656" d="M130.023 283.039C130.117 283.039 130.207 283.006 130.278 282.944C130.32 282.91 130.354 282.868 130.38 282.821C130.406 282.774 130.421 282.722 130.427 282.668C130.432 282.615 130.427 282.56 130.411 282.509C130.396 282.457 130.37 282.41 130.336 282.368C129.352 281.358 128.164 280.569 126.85 280.055C125.537 279.54 124.129 279.312 122.721 279.385C122.666 279.389 122.613 279.404 122.564 279.43C122.515 279.455 122.471 279.489 122.436 279.532C122.401 279.574 122.375 279.623 122.359 279.676C122.343 279.728 122.338 279.784 122.343 279.838C122.349 279.893 122.366 279.946 122.393 279.994C122.419 280.042 122.455 280.085 122.499 280.118C122.542 280.152 122.592 280.177 122.645 280.192C122.698 280.206 122.753 280.209 122.808 280.202C124.078 280.144 125.346 280.35 126.533 280.807C127.719 281.264 128.798 281.962 129.701 282.857C129.736 282.911 129.784 282.956 129.84 282.987C129.896 283.019 129.959 283.037 130.023 283.039Z" fill="#F0F0F0"/><path id="Path 11657" d="M133.642 280.929C133.737 280.93 133.83 280.899 133.905 280.841C133.947 280.807 133.981 280.765 134.007 280.718C134.033 280.671 134.048 280.619 134.054 280.565C134.059 280.512 134.054 280.457 134.038 280.406C134.023 280.354 133.997 280.307 133.963 280.265C132.98 279.254 131.792 278.464 130.478 277.949C129.165 277.435 127.757 277.207 126.348 277.282C126.293 277.285 126.238 277.299 126.189 277.324C126.139 277.348 126.095 277.383 126.059 277.425C126.023 277.467 125.996 277.517 125.98 277.57C125.963 277.623 125.958 277.678 125.964 277.733C125.97 277.789 125.987 277.842 126.015 277.89C126.042 277.939 126.079 277.981 126.123 278.014C126.167 278.048 126.218 278.072 126.271 278.085C126.325 278.099 126.381 278.101 126.436 278.092C127.709 278.037 128.979 278.248 130.166 278.711C131.353 279.175 132.43 279.88 133.329 280.783C133.368 280.828 133.416 280.865 133.47 280.89C133.524 280.915 133.582 280.929 133.642 280.929Z" fill="#F0F0F0"/><path id="Path 11658" d="M137.003 278.531C137.097 278.531 137.187 278.498 137.258 278.436C137.3 278.402 137.334 278.36 137.36 278.313C137.386 278.266 137.401 278.214 137.407 278.16C137.412 278.107 137.407 278.052 137.391 278.001C137.376 277.949 137.35 277.902 137.316 277.86C136.332 276.851 135.144 276.063 133.831 275.548C132.518 275.034 131.111 274.805 129.703 274.877C129.595 274.89 129.497 274.944 129.429 275.029C129.36 275.113 129.328 275.221 129.338 275.329C129.343 275.383 129.359 275.435 129.385 275.483C129.411 275.53 129.446 275.572 129.488 275.606C129.53 275.64 129.578 275.665 129.63 275.68C129.682 275.695 129.736 275.7 129.79 275.694C131.062 275.64 132.332 275.851 133.518 276.313C134.705 276.775 135.782 277.478 136.683 278.378C136.721 278.426 136.77 278.465 136.825 278.492C136.881 278.518 136.941 278.532 137.003 278.531Z" fill="#F0F0F0"/><path id="Path 11659" d="M140.293 276.132C140.387 276.132 140.477 276.098 140.548 276.037C140.632 275.97 140.685 275.873 140.698 275.766C140.71 275.66 140.68 275.552 140.614 275.468C138.995 273.44 135.348 272.106 132.292 272.441C132.238 272.446 132.187 272.462 132.139 272.488C132.092 272.514 132.051 272.549 132.017 272.591C131.984 272.633 131.96 272.682 131.945 272.734C131.931 272.786 131.928 272.84 131.935 272.893C131.94 272.947 131.956 272.999 131.982 273.047C132.008 273.094 132.043 273.136 132.085 273.17C132.127 273.204 132.175 273.229 132.227 273.244C132.279 273.259 132.333 273.264 132.387 273.258C135.137 272.958 138.536 274.177 139.965 275.971C140.004 276.021 140.054 276.061 140.111 276.089C140.167 276.117 140.23 276.131 140.293 276.132Z" fill="#F0F0F0"/><path id="Path 11660" d="M181.634 297.547C181.911 301.493 182.56 304.111 183.997 306.409C185.434 308.707 188.097 309.409 190.78 308.699C193.463 307.989 196.892 306.139 197.622 302.718C198.352 299.297 198.774 296.963 198.122 293.309L181.634 297.547Z" fill="#263238"/><path id="Path 11661" d="M192.575 268.816C193.684 268.889 194.034 274.192 194.763 279.494C195.492 285.176 197.25 287.517 197.921 292.171C198.65 297.496 197.821 299.888 195.981 303.112C194.141 306.336 187.535 309.596 184.201 305.012C181.488 301.278 181.327 297.105 181.501 291.774C181.587 287.273 181.416 282.77 180.99 278.288C180.72 274.298 179.79 270.265 180.749 269.827C180.829 270.41 180.909 271.154 180.99 271.727C181.038 272.447 181.168 273.159 181.377 273.85C181.494 274.15 181.742 274.455 181.837 273.974C181.888 273.643 181.888 273.305 181.837 272.974C181.655 271.515 182.399 271.384 182.8 271.26C184.487 270.911 186.192 270.651 187.906 270.48C188.752 270.414 191.677 270.254 192.064 270.728C192.314 271.203 192.447 271.73 192.451 272.267C192.56 273.067 192.751 273.653 192.772 273.405C192.816 272.829 192.692 271.334 192.672 270.976C192.652 270.618 192.592 270.159 192.584 269.809C192.61 269.478 192.607 269.146 192.575 268.816Z" fill="#37474F"/><path id="Path 11662" d="M198.315 295.257C198.548 298.108 197.855 300.957 196.338 303.382C194.493 306.628 187.352 309.882 184.019 305.3C182.363 303.024 181.889 300.311 181.634 297.547C183.56 293.966 195.179 292.266 198.315 295.257Z" fill="#FAFAFA"/><path id="Path 11663" d="M183.983 291.719H184.122C184.166 291.719 189.271 289.531 194.282 290.619C194.388 290.641 194.499 290.62 194.59 290.562C194.682 290.503 194.747 290.411 194.771 290.305C194.783 290.253 194.784 290.199 194.775 290.146C194.765 290.093 194.745 290.043 194.716 289.998C194.687 289.953 194.649 289.915 194.604 289.885C194.56 289.855 194.51 289.834 194.457 289.824C190.852 289.193 187.143 289.595 183.757 290.984C183.668 291.021 183.595 291.089 183.554 291.176C183.512 291.264 183.505 291.363 183.533 291.456C183.562 291.548 183.623 291.627 183.707 291.676C183.79 291.725 183.888 291.741 183.983 291.721V291.719Z" fill="#F0F0F0"/><path id="Path 11664" d="M193.983 286.613C194.061 286.604 194.136 286.573 194.198 286.524C194.259 286.475 194.306 286.41 194.333 286.336C194.365 286.232 194.356 286.12 194.307 286.023C194.258 285.927 194.173 285.853 194.07 285.818C189.07 284.199 183.589 286.773 183.385 286.883C183.337 286.907 183.294 286.941 183.259 286.983C183.224 287.024 183.198 287.072 183.182 287.124C183.167 287.176 183.162 287.23 183.168 287.284C183.174 287.338 183.19 287.39 183.217 287.437C183.269 287.531 183.357 287.602 183.46 287.633C183.563 287.665 183.675 287.654 183.771 287.605C183.815 287.605 189.171 285.081 193.815 286.591C193.868 286.612 193.926 286.62 193.983 286.613Z" fill="#F0F0F0"/><path id="Path 11665" d="M193.765 282.857C193.856 282.847 193.941 282.806 194.006 282.741C194.071 282.676 194.113 282.592 194.124 282.501C194.135 282.409 194.114 282.317 194.067 282.239C194.019 282.161 193.946 282.101 193.86 282.069C188.368 280.18 183.16 282.988 182.97 283.105C182.923 283.132 182.881 283.169 182.848 283.213C182.815 283.256 182.791 283.306 182.778 283.359C182.765 283.412 182.762 283.467 182.771 283.521C182.779 283.575 182.798 283.627 182.827 283.674C182.856 283.72 182.894 283.76 182.938 283.792C182.983 283.823 183.034 283.846 183.087 283.857C183.141 283.869 183.196 283.87 183.25 283.859C183.303 283.849 183.355 283.828 183.4 283.798C183.444 283.798 188.506 281.085 193.611 282.843C193.661 282.856 193.713 282.861 193.765 282.857Z" fill="#F0F0F0"/><path id="Path 11666" d="M193.451 279.209C193.528 279.201 193.601 279.171 193.662 279.124C193.722 279.076 193.768 279.012 193.794 278.939C193.829 278.836 193.823 278.724 193.777 278.626C193.73 278.528 193.648 278.452 193.546 278.414C188.397 276.569 182.795 279.442 182.605 279.574C182.513 279.629 182.446 279.718 182.419 279.821C182.391 279.925 182.406 280.035 182.459 280.128C182.515 280.223 182.607 280.291 182.713 280.319C182.82 280.346 182.933 280.33 183.028 280.274C183.072 280.274 188.506 277.466 193.29 279.187C193.341 279.205 193.396 279.213 193.45 279.209H193.451Z" fill="#EBEBEB"/><path id="Path 11667" d="M181.518 121.487C186.624 130.48 186.843 137.854 187.667 164.747C188.491 191.64 187.82 193.922 187.959 197.154C188.098 200.386 190.074 206.169 191.927 222.128C193.032 232.431 193.164 242.815 192.321 253.142C192.321 253.142 191.198 255.724 185.027 256.342C179.367 256.911 176.537 254.825 176.537 254.825C176.537 254.825 168.12 227.838 165.859 218.202C163.598 208.566 157.659 182.302 157.659 182.302L154.738 202.062C154.738 202.062 156.569 210.862 155.008 224.899C154.126 233.052 152.762 241.145 150.923 249.137C147.997 250.236 144.902 250.821 141.777 250.866C138.992 250.898 136.252 250.164 133.856 248.743C133.856 248.743 128.918 211.289 128.75 195.403C128.582 179.517 129.808 141.282 131.121 122.203L181.518 121.487Z" fill="#37474F"/><path id="Path 11668" d="M164.181 201.975C164.181 201.975 166.581 198.445 172.554 197.657C178.527 196.869 181.686 200.071 181.686 200.071C181.686 200.071 170.563 199.028 164.181 201.975ZM182.416 202.413C174.716 204.013 171.191 203.748 167.653 203.091C167.624 203.091 178.718 201.567 182.365 202.413H182.416Z" fill="#C8856A"/><path id="Path 11669" d="M128.908 199.546L128.835 197.825C133.984 197.096 142.212 198.649 144.429 199.889C139.281 199.246 134.08 199.132 128.908 199.546ZM140.79 201.895C137.347 202.858 129.12 203.354 129.12 203.354L129.02 201.742C129.02 201.742 134.904 201.537 140.79 201.895Z" fill="#C8856A"/><path id="Path 11670" d="M191.27 254.301C191.007 254.504 190.729 254.687 190.438 254.848C191.707 229.721 188.119 219.348 185.909 209.757C185.697 208.838 185.493 207.963 185.309 207.131C183.639 199.631 184.222 195.147 184.098 182.799C184.098 179.079 184.025 175.235 183.945 171.129C183.845 166.352 183.639 161.414 183.216 156.541C174.405 155.593 172.392 146.971 169.854 136.082C169.511 134.623 169.125 133.055 168.76 131.472L169.54 131.282C169.934 132.865 170.269 134.411 170.634 135.899C173.18 146.84 175.01 154.739 183.134 155.716C182.047 144.616 179.618 133.878 174.046 126.161L174.695 125.694C182.981 137.175 184.432 155.103 184.768 171.128C184.848 175.213 184.885 179.056 184.921 182.798C185.045 195.098 184.461 199.574 186.11 206.963C186.3 207.795 186.497 208.67 186.71 209.589C188.892 219.138 192.466 229.429 191.27 254.301ZM152.263 154.281L157.701 182.304L154.779 202.066L154.487 183.102L150.84 164.202C150.731 166.084 150.621 168.017 150.512 169.986C149.586 186.237 149.053 198.709 149.929 202.575C152.394 213.166 151.782 219.869 150.658 232.05C150.541 233.283 150.425 234.574 150.308 235.93C149.703 242.808 148.915 245.594 148.455 250.022C148.2 250.088 147.923 250.161 147.623 250.222C148.083 245.802 148.892 242.877 149.505 235.853C149.629 234.496 149.746 233.205 149.855 231.973C150.955 219.88 151.562 213.22 149.126 202.754C148.2 198.772 148.718 187.036 149.688 169.932C149.863 166.832 150.038 163.832 150.188 160.961L149.415 157.555C145.557 156.68 139.35 153.821 138.161 148.547C141.942 152.212 146.997 154.268 152.263 154.281Z" fill="#263238"/></g><g id="freepik--Top--inject-11"><path id="Path 11671" d="M143.116 69.395C135.268 70.895 131.497 73.414 127.416 80.336C123.335 87.258 117.205 104.712 117.285 108.636H133.609L143.116 69.395Z" fill="#C8856A"/><path id="Path 11672" d="M132.642 102.414C129.163 101.48 126.595 100.814 124.772 100.86C126.231 99.89 132.795 101.013 132.795 101.013L132.642 102.414Z" fill="#AF6152"/><path id="Path 11673" d="M143.502 68.891C137.944 69.329 133.902 70.875 130.202 75.412C126.502 79.949 126.176 81.707 124.214 86.666C122.252 91.625 120.914 94.93 120.914 94.93C120.914 94.93 124.648 101.618 136.778 100.612L141.096 87.673L143.502 68.891Z" fill="#37474F"/><path id="freepik--Chest--inject-11" d="M172.437 67.374C172.437 67.374 179.468 69.227 186.485 71.75C186.485 71.75 194.185 74.864 189.979 97.483C188.914 103.183 186.755 111.483 186.164 118.54C185.828 122.54 186.091 132.201 186.624 140.422C186.624 140.422 174.152 148.649 151.249 146.097C133.27 144.084 130.349 136.177 130.349 136.177C130.349 136.177 131.078 115.929 132.574 102.552C134.726 83.352 138.574 72.603 143.515 68.84L153.726 67.746L172.437 67.374Z" fill="#455A64"/><g id="freepik--Head--inject-11"><path id="Path 11674" d="M180.489 52.823C178.783 56.0869 176.598 59.0765 174.005 61.692C173.232 62.5484 172.156 63.0715 171.005 63.151L172.748 56.339L174.083 51.639C174.083 51.639 171.071 47.263 171.53 43.769C171.69 42.4599 172.036 41.1803 172.558 39.969L149.444 36.322C149.444 36.322 148.671 30.064 152.712 26.191C156.578 22.478 161.465 20.655 169.012 22.799C178.224 25.425 182.012 31.121 181.791 35.126C183.202 36.1111 184.187 37.5939 184.548 39.276C185.012 41.189 184.931 44.45 180.489 52.823Z" fill="#263238"/><path id="Path 11675" d="M178.206 59.124C177.97 59.2282 177.726 59.3134 177.477 59.379C176.817 59.5836 176.12 59.641 175.435 59.547C174.86 59.3851 174.334 59.0846 173.903 58.672C173.397 58.265 172.967 57.7709 172.634 57.213L172.386 70.113C166.157 77.713 145.049 75.627 153.75 68.027L153.495 63.366C152.479 63.1109 151.485 62.7793 150.519 62.374C148.978 61.804 147.64 60.7918 146.672 59.4644C145.704 58.1369 145.15 56.5533 145.078 54.912C144.859 49.566 148.368 38.812 150.541 33.03C150.875 32.1584 151.398 31.3712 152.071 30.7245C152.744 30.0777 153.552 29.5872 154.436 29.288C158.601 28.274 161.436 31.746 166.172 34.977C168.127 36.319 173.272 37.895 174.793 37.537C173.585 38.5705 172.766 39.9862 172.474 41.549C172.238 42.6917 172.206 43.8671 172.379 45.021C172.634 46.0418 172.793 47.0844 172.853 48.135C172.784 48.6164 172.863 49.1073 173.079 49.543C173.287 49.7701 173.566 49.9208 173.87 49.971C174.174 50.0212 174.487 49.968 174.757 49.82C175.289 49.5146 175.779 49.1419 176.216 48.711C176.832 48.1712 177.593 47.8235 178.404 47.711C179.176 47.6866 179.938 47.8964 180.589 48.313C181.24 48.7296 181.75 49.3334 182.051 50.045C182.627 51.4997 182.643 53.1164 182.095 54.582C181.798 55.567 181.299 56.4792 180.629 57.2604C179.96 58.0415 179.135 58.6746 178.207 59.119L178.206 59.124Z" fill="#C8856A"/><path id="Path 11676" d="M153.488 63.355C157.573 64.255 161.314 64.573 163.955 64.084C166.596 63.595 169.484 60.794 170.928 57.684C170.328 60.317 168.128 64.715 164.028 65.824C159.928 66.933 156.296 66.108 153.612 65.561L153.488 63.355Z" fill="#AF6152"/><path id="Path 11677" d="M164.129 38.702L166.729 41.525C167.103 41.1596 167.323 40.6639 167.341 40.141C167.36 39.6181 167.177 39.1081 166.829 38.717C166.656 38.5317 166.447 38.3837 166.215 38.282C165.983 38.1804 165.733 38.1272 165.479 38.1258C165.226 38.1244 164.975 38.1748 164.742 38.2739C164.508 38.3729 164.298 38.5186 164.123 38.702H164.129Z" fill="#263238"/><path id="Path 11678" d="M150.526 37.779L154.392 37.947C154.419 37.6959 154.395 37.4418 154.32 37.2006C154.245 36.9594 154.121 36.7361 153.956 36.5447C153.791 36.3532 153.589 36.1977 153.361 36.0876C153.134 35.9776 152.886 35.9154 152.634 35.905C152.11 35.89 151.6 36.0757 151.208 36.4242C150.816 36.7727 150.572 37.2577 150.526 37.78V37.779Z" fill="#263238"/><path id="Path 11679" d="M164.575 44.545C164.465 44.8906 164.24 45.1876 163.936 45.3853C163.632 45.5831 163.269 45.6695 162.908 45.6297C162.548 45.59 162.213 45.4266 161.959 45.1674C161.706 44.9081 161.55 44.569 161.518 44.2079C161.487 43.8467 161.581 43.4857 161.786 43.1864C161.99 42.8871 162.292 42.6679 162.64 42.5662C162.988 42.4645 163.361 42.4865 163.694 42.6285C164.028 42.7705 164.302 43.0237 164.47 43.345C164.566 43.5281 164.625 43.7285 164.643 43.9345C164.661 44.1405 164.638 44.348 164.575 44.545Z" fill="#263238"/><path id="Path 11680" d="M153.43 41.16C153.319 41.5052 153.092 41.8013 152.787 41.9978C152.483 42.1944 152.119 42.2793 151.759 42.2381C151.399 42.1969 151.064 42.0321 150.812 41.7718C150.559 41.5115 150.405 41.1718 150.375 40.8104C150.344 40.4491 150.441 40.0885 150.646 39.7901C150.852 39.4916 151.155 39.2737 151.504 39.1734C151.852 39.0731 152.224 39.0967 152.557 39.2401C152.89 39.3835 153.163 39.6379 153.33 39.96C153.425 40.1434 153.483 40.344 153.5 40.55C153.518 40.756 153.494 40.9633 153.43 41.16Z" fill="#263238"/><path id="Path 11681" d="M158.725 40.81L155.311 50.292L150.271 46.937C152.594 44.2868 155.483 42.1928 158.725 40.81Z" fill="#AF6152"/><path id="Path 11682" d="M155.289 54.311L155.333 54.267C155.399 54.2286 155.476 54.2109 155.552 54.216C156.159 54.2588 156.768 54.2588 157.375 54.216C157.901 54.1515 158.415 54.009 158.899 53.793C159.313 53.5177 159.748 53.274 160.199 53.064C160.227 53.0569 160.257 53.0562 160.286 53.0618C160.315 53.0675 160.342 53.0795 160.366 53.0968C160.389 53.1142 160.409 53.1366 160.423 53.1623C160.437 53.1881 160.445 53.2167 160.447 53.246C160.403 53.706 159.718 54.056 159.338 54.253C158.882 54.488 158.388 54.641 157.879 54.705C157.337 54.7743 156.787 54.7743 156.245 54.705C155.97 54.6747 155.697 54.6259 155.428 54.559C155.304 54.479 155.231 54.391 155.289 54.311Z" fill="#AF6152"/></g><path id="Path 11683" d="M175.434 123.851C174.634 123.851 173.851 123.851 173.064 123.895C171.029 123.942 168.993 123.884 166.964 123.72C165.695 123.611 164.433 123.45 163.179 123.22C162.037 123.063 160.908 122.819 159.802 122.491C157.614 121.711 155.477 120.821 153.354 119.931C151.231 119.041 148.467 118.903 146.254 118.713C141.039 118.283 136.385 118.297 131.207 117.513C128.178 117.063 125.23 116.178 122.454 114.887C120.666 114.007 119.14 112.674 118.027 111.021C116.641 108.833 117.378 107.374 119.311 106.054C123.344 103.631 127.968 102.369 132.673 102.407C135.963 103.268 139.814 104.559 143.461 105.748C146.882 106.871 149.478 107.79 152.943 108.666C154.452 108.983 156.006 109.028 157.531 108.797C158.99 108.597 160.237 108.141 161.637 107.914C163.416 107.495 165.226 107.224 167.049 107.104C170.156 107.104 173.336 108.104 175.449 108.388C177.562 108.672 177.418 109.847 175.828 110.715C174.997 111.054 174.095 111.182 173.202 111.087C172.202 111.087 171.202 111.014 170.202 111.087C169.969 111.087 169.509 111.087 169.385 111.313C169.261 111.539 169.585 111.853 169.801 111.955C171.077 112.383 172.432 112.522 173.769 112.363H179.903C180.309 112.326 180.717 112.393 181.09 112.558C181.462 112.722 181.787 112.979 182.033 113.304C182.184 113.53 182.258 113.799 182.244 114.07C182.244 114.296 182.113 114.486 182.368 114.654C182.577 114.758 182.806 114.818 183.039 114.829C183.285 114.882 183.515 114.993 183.71 115.153C183.904 115.313 184.057 115.517 184.157 115.748C184.256 115.98 184.298 116.232 184.28 116.483C184.262 116.734 184.184 116.977 184.053 117.192C183.835 117.498 183.547 117.748 183.214 117.921C183.052 117.98 182.907 118.078 182.793 118.206C182.678 118.335 182.597 118.49 182.558 118.658C182.398 119.038 182.148 119.373 181.829 119.635C181.233 120.071 180.535 120.347 179.801 120.435C179.188 120.544 178.568 120.617 177.948 120.683C177.109 120.778 176.27 120.909 175.424 121.019L174.337 121.143L173.79 121.201C173.614 121.202 173.44 121.228 173.272 121.281C173.372 121.381 173.797 121.339 173.95 121.347L174.73 121.398C175.23 121.434 175.722 121.486 176.189 121.566C176.529 121.615 176.859 121.718 177.166 121.872C177.434 121.987 177.653 122.192 177.786 122.452C177.919 122.711 177.958 123.009 177.895 123.294C177.84 123.399 177.76 123.49 177.662 123.557C177.564 123.625 177.451 123.667 177.333 123.681C177.117 123.727 176.897 123.759 176.677 123.776C176.266 123.841 175.85 123.866 175.434 123.851Z" fill="#C8856A"/><path id="Path 11684" d="M161.532 116.083C160.192 113.741 159.156 111.239 158.447 108.636C159.526 108.41 160.54 108.096 161.634 107.907C163.413 107.488 165.223 107.217 167.046 107.097C170.153 107.097 173.333 108.097 175.446 108.381C177.559 108.665 177.415 109.84 175.825 110.708C174.994 111.047 174.092 111.175 173.199 111.08C172.199 111.08 171.199 111.007 170.199 111.08C169.966 111.08 169.506 111.08 169.382 111.306C169.258 111.532 169.582 111.846 169.798 111.948C171.074 112.376 172.429 112.515 173.766 112.356H179.9C180.306 112.319 180.714 112.386 181.087 112.551C181.459 112.715 181.784 112.972 182.03 113.297C182.181 113.523 182.255 113.792 182.241 114.063C182.241 114.253 182.154 114.42 182.285 114.563C181.965 114.762 181.692 115.028 181.485 115.343L180.085 117.743C181.258 117.871 182.443 117.841 183.608 117.655C183.482 117.758 183.349 117.851 183.208 117.932C183.049 118.008 182.904 118.109 182.778 118.232C181.889 118.419 181.013 118.664 180.157 118.967C179.386 119.41 178.702 119.988 178.137 120.674H177.947C177.108 120.769 176.269 120.9 175.423 121.01L174.336 121.134L173.789 121.192C173.613 121.193 173.439 121.219 173.271 121.272C173.371 121.372 173.796 121.33 173.949 121.338L174.729 121.389C175.229 121.425 175.721 121.477 176.188 121.557C176.437 121.601 176.681 121.668 176.917 121.757C174.452 123.657 171.009 124.565 168.117 123.257C167.749 123.092 167.394 122.902 167.052 122.688C164.61 121.13 162.957 118.578 161.532 116.083Z" fill="#AF6152"/><path id="Path 11685" d="M171.051 123.027C173.969 122.772 176.572 122.538 180.774 115.791C183.943 110.707 186.681 105.366 188.958 99.825C192.167 92.517 194.552 87.425 194.258 82.772C194.017 78.972 193.047 74.851 186.381 72.272C182.369 74.825 176.841 82.031 174.281 88.545C171.721 95.059 167.191 107.225 167.191 107.225L171.051 123.027Z" fill="#C8856A"/><path id="Path 11686" d="M186.485 71.984C193.429 74.821 195.967 80.084 194.034 87.884C191.882 96.637 186.011 108.307 186.011 108.307C186.011 108.307 182.087 108.489 177.149 105.295C174.141 103.301 171.78 100.472 170.358 97.155C170.358 97.155 172.831 90.211 174.173 86.513C176.818 79.194 181.474 73.173 186.485 71.984Z" fill="#37474F"/><path id="Path 11687" d="M178.089 108.658C177.889 100.795 174.304 96.01 171.568 90.124C169.474 85.9384 167.72 81.591 166.324 77.124C165.317 73.557 164.8 68.371 165.288 65.731C165.698 63.7161 166.271 61.7378 167.002 59.816C167.502 58.503 166.966 58.357 165.718 58.416C164.47 58.475 163.129 59.065 161.969 61.334C160.809 63.603 160.51 64.981 159.963 64.872C159.416 64.763 156.703 61.597 155.12 60.109C153.537 58.621 152.932 58.577 150.481 58.278C148.528 57.9876 146.54 58.0319 144.602 58.409C143.476 58.9937 142.435 59.7299 141.509 60.597C140.663 61.253 142.092 62.457 143.697 61.888L145.272 61.326C144.652 61.807 144.696 62.471 144.601 63.295C144.569 63.8507 144.743 64.3987 145.09 64.834C145.09 64.834 144.507 65.009 144.29 66.052C144.159 66.6781 144.184 67.3268 144.363 67.941C144.183 67.92 144 67.9541 143.84 68.0387C143.679 68.1232 143.548 68.2544 143.463 68.415C143.106 68.999 142.632 69.939 144.732 71.85C146.832 73.761 148.379 75.045 150.188 76.54C151.397 77.4608 152.451 78.5688 153.31 79.822C154.41 81.422 154.769 84.133 155.447 88.487C157.008 98.144 157.307 100.544 158.963 106.444C160.218 110.93 161.691 115.576 166.57 120.601C170.87 125.036 173.733 122.483 175.417 119.301C177.049 115.982 177.96 112.354 178.089 108.658Z" fill="#C8856A"/><path id="Path 11688" d="M178.089 108.658C178.271 101.364 174.077 95.113 171.218 88.724C169.717 85.5266 168.378 82.2558 167.206 78.924C165.78 74.7711 165.229 70.3682 165.587 65.992C166.005 63.8346 166.612 61.7183 167.403 59.668C168.132 57.553 165.103 57.961 164.003 58.581C161.932 59.77 161.341 62.228 160.356 64.197C160.276 64.365 160.093 64.686 160.02 64.642C157.897 62.972 156.286 60.579 154.01 59.011C153.212 58.5693 152.322 58.3197 151.41 58.282C149.643 58.0402 147.855 57.9913 146.078 58.136C144.178 58.136 142.832 59.515 141.519 60.682C142.876 59.588 144.232 58.268 146.092 58.326C147.853 58.2336 149.618 58.3315 151.358 58.618C152.217 58.6734 153.052 58.9227 153.801 59.347C156.069 60.966 157.572 63.424 159.801 65.138C160.701 65.517 161.107 63.796 161.435 63.238C162.164 61.728 162.799 59.956 164.309 59.124C165.035 58.7611 165.859 58.6432 166.658 58.788C167.015 58.876 166.848 59.182 166.789 59.474C165.731 62.392 164.645 65.455 164.761 68.599C164.761 75.813 167.679 82.567 170.735 88.956C173.791 95.345 177.963 101.356 178.094 108.649L178.089 108.658Z" fill="#AF6152"/><path id="Path 11689" d="M151.591 62.261C149.738 61.233 147.215 59.927 145.245 61.386C146.269 61.0501 147.375 61.0655 148.389 61.43C149.33 61.699 150.642 62.049 151.591 62.261Z" fill="#AF6152"/><path id="Path 11690" d="M149.87 66.229C148.469 65.2457 146.77 64.7769 145.063 64.902C146.63 65.464 148.237 65.9075 149.87 66.229Z" fill="#AF6152"/><path id="Path 11691" d="M148.521 70.071C147.183 69.2707 145.782 68.5782 144.334 68C145.429 69.1803 146.919 69.9173 148.521 70.071Z" fill="#AF6152"/></g></g></g><g id="freepik--Symbols--inject-11"><g id="transalte" style=" transform-origin: center; transform-box: fill-box; animation: translateY 2s linear infinite alternate;"><path id="Path 11692" d="M28.975 126.283C27.9793 125.815 26.9533 125.414 25.904 125.083C24.7907 124.736 23.6479 124.492 22.49 124.354C21.2457 124.207 19.9897 124.185 18.741 124.288C17.3393 124.402 15.9532 124.661 14.605 125.061C12.7867 125.568 11.0624 126.366 9.499 127.424C8.12194 128.351 6.9439 129.544 6.034 130.932C5.17879 132.254 4.62598 133.748 4.41502 135.308C4.20328 136.998 4.35256 138.713 4.853 140.341C5.25454 141.865 5.94281 143.298 6.88099 144.564C7.66944 145.609 8.61381 146.527 9.68101 147.285C10.6549 147.972 11.7078 148.54 12.817 148.977L15.888 150.151C16.7639 150.483 17.6168 150.873 18.441 151.318C19.1331 151.681 19.6905 152.256 20.031 152.959L22.219 157.659L27.919 156.011L26.898 150.336C26.7764 149.34 26.3333 148.41 25.636 147.688C24.94 146.995 24.1311 146.425 23.244 146.003C22.2731 145.529 21.2707 145.122 20.244 144.785C19.1731 144.432 18.1297 144 17.122 143.494C16.1358 142.998 15.2289 142.357 14.431 141.594C13.5941 140.757 12.995 139.712 12.695 138.567C12.4669 137.823 12.4071 137.037 12.52 136.267C12.6365 135.545 12.9051 134.857 13.308 134.247C13.7419 133.604 14.2969 133.051 14.942 132.62C15.6591 132.136 16.4496 131.772 17.283 131.541C18.3759 131.197 19.5144 131.02 20.66 131.016C21.5137 131.027 22.3642 131.124 23.198 131.308C23.927 131.476 24.533 131.644 25.043 131.797C25.448 131.951 25.8896 131.982 26.312 131.885C26.6776 131.804 27.0112 131.617 27.2708 131.347C27.5303 131.077 27.7044 130.736 27.771 130.368L28.975 126.283ZM33.045 164.211C32.8496 163.526 32.5199 162.886 32.075 162.329C31.6582 161.792 31.1371 161.346 30.543 161.016C29.2916 160.348 27.8292 160.194 26.466 160.586C25.7746 160.783 25.1314 161.12 24.577 161.578C24.0495 162.008 23.6067 162.532 23.271 163.124C22.931 163.735 22.7154 164.408 22.6367 165.103C22.5579 165.798 22.6176 166.502 22.8121 167.174C23.0067 167.846 23.3324 168.473 23.7704 169.018C24.2083 169.564 24.7499 170.017 25.364 170.352C26.6093 171.009 28.0622 171.152 29.412 170.752C30.1062 170.553 30.7552 170.221 31.323 169.775C31.8562 169.355 32.3022 168.834 32.636 168.243C32.9593 167.651 33.1632 167.002 33.236 166.332C33.3142 165.616 33.2496 164.892 33.046 164.202L33.045 164.211Z" fill="#F0F0F0" stroke="#F15921"/></g><g id="scale" style=" transform-origin: center; transform-box: fill-box; animation: pulsecust 2s linear infinite alternate;"><path id="Path 11693" d="M287.313 217.153C286.809 216.249 286.243 215.38 285.621 214.553C284.254 212.728 282.544 211.187 280.588 210.016C279.455 209.337 278.254 208.777 277.005 208.346C275.337 207.733 273.581 207.395 271.805 207.346C270.244 207.3 268.69 207.565 267.232 208.126C265.848 208.671 264.603 209.515 263.585 210.599C262.493 211.771 261.665 213.164 261.156 214.683C260.628 216.068 260.366 217.541 260.383 219.023C260.42 220.252 260.639 221.468 261.032 222.633C261.396 223.692 261.886 224.704 262.492 225.646L264.192 228.228C264.682 228.959 265.119 229.724 265.498 230.518C265.833 231.172 265.946 231.917 265.819 232.64L264.919 237.447L270.178 239.314L272.512 234.42C272.963 233.592 273.135 232.64 273.001 231.707C272.847 230.796 272.543 229.918 272.101 229.107C271.617 228.213 271.073 227.353 270.474 226.532C269.853 225.673 269.295 224.771 268.804 223.832C268.319 222.916 267.974 221.933 267.783 220.914C267.607 219.814 267.722 218.688 268.116 217.646C268.349 216.951 268.732 216.316 269.239 215.786C269.723 215.299 270.305 214.921 270.946 214.677C271.629 214.424 272.355 214.305 273.083 214.327C273.895 214.355 274.697 214.51 275.461 214.786C276.488 215.124 277.457 215.616 278.335 216.246C278.98 216.72 279.574 217.261 280.107 217.858C280.566 218.383 280.946 218.843 281.252 219.244C281.478 219.582 281.797 219.848 282.171 220.01C282.496 220.147 282.853 220.185 283.199 220.121C283.546 220.056 283.865 219.89 284.118 219.645L287.313 217.153ZM269.618 248.346C269.847 247.716 269.949 247.047 269.918 246.377C269.891 245.74 269.737 245.116 269.466 244.539C269.173 243.94 268.764 243.405 268.263 242.964C267.762 242.524 267.18 242.187 266.548 241.972C265.913 241.743 265.238 241.646 264.564 241.688C263.926 241.733 263.301 241.891 262.719 242.155C262.152 242.437 261.643 242.823 261.219 243.293C260.767 243.787 260.419 244.368 260.198 245C259.962 245.633 259.865 246.31 259.914 246.984C259.951 247.622 260.115 248.247 260.395 248.822C260.679 249.394 261.07 249.907 261.547 250.332C262.048 250.783 262.633 251.13 263.268 251.353C263.908 251.584 264.588 251.686 265.268 251.653C265.905 251.634 266.531 251.483 267.107 251.211C267.683 250.938 268.197 250.55 268.616 250.07C269.066 249.572 269.409 248.986 269.623 248.349L269.618 248.346Z" fill="#F15921" fill-opacity="0.27"/></g><g id="scale_2" style=" transform-origin: center; transform-box: fill-box; animation: pulsecust 2s linear infinite alternate;"><path id="Path 11694" d="M36.356 257.818C35.7671 257.746 35.1989 257.555 34.6861 257.257C34.1733 256.958 33.7266 256.558 33.373 256.082L24.847 244.582C24.5117 244.129 24.2701 243.613 24.1361 243.066C24.0022 242.518 23.9787 241.95 24.0669 241.393C24.1552 240.836 24.3534 240.302 24.6501 239.823C24.9468 239.344 25.336 238.928 25.795 238.601C26.7299 237.929 27.8919 237.653 29.0293 237.831C30.1666 238.01 31.1876 238.63 31.871 239.557L37.392 247.034L54.756 230.173C55.5817 229.371 56.69 228.927 57.841 228.936C58.9919 228.946 60.0927 229.409 60.905 230.224C61.3087 230.619 61.6296 231.09 61.8486 231.611C62.0676 232.131 62.1804 232.69 62.1804 233.254C62.1804 233.819 62.0676 234.378 61.8486 234.898C61.6296 235.419 61.3087 235.89 60.905 236.285L39.945 256.622C39.4969 257.056 38.9612 257.389 38.3737 257.599C37.7863 257.809 37.1607 257.892 36.539 257.84L36.356 257.818Z" fill="#F15921" fill-opacity="0.27"/></g><g id="rotate_1" style=" transform-origin: center; transform-box: fill-box; animation: translateX 2s linear infinite alternate;" ><path id="Path 11695" d="M298.085 63.872C297.476 63.9782 296.851 63.9579 296.25 63.8124C295.649 63.6668 295.084 63.3991 294.591 63.026L282.636 54.04C282.141 53.6915 281.721 53.247 281.402 52.733C281.082 52.219 280.869 51.646 280.775 51.0481C280.682 50.4501 280.709 49.8394 280.856 49.2522C281.003 48.6651 281.267 48.1135 281.631 47.6302C281.995 47.147 282.453 46.7419 282.977 46.4391C283.501 46.1364 284.081 45.9421 284.682 45.8678C285.282 45.7935 285.892 45.8408 286.474 46.0068C287.056 46.1727 287.599 46.4541 288.07 46.834L295.838 52.669L307.909 30.35C308.194 29.8285 308.58 29.3682 309.043 28.9956C309.506 28.623 310.039 28.3453 310.609 28.1783C311.18 28.0114 311.778 27.9584 312.369 28.0226C312.96 28.0867 313.532 28.2666 314.054 28.552C314.576 28.8374 315.036 29.2228 315.408 29.6861C315.781 30.1494 316.059 30.6815 316.226 31.2521C316.393 31.8227 316.446 32.4207 316.381 33.0117C316.317 33.6028 316.137 34.1755 315.852 34.697L301.265 61.633C300.956 62.2048 300.526 62.7028 300.006 63.0931C299.487 63.4834 298.888 63.7566 298.253 63.894L298.085 63.872Z" fill="#F0F0F0" stroke="#F15921"/></g></g><g id="freepik--light-bulbs--inject-11"><path id="rotate_3" style=" transform-origin: center; transform-box: fill-box; animation: rotation 2s linear infinite alternate;" d="M15.743 55.361C15.6547 55.5242 15.5074 55.6475 15.3312 55.7058C15.1551 55.7642 14.9633 55.7531 14.795 55.675L6.416 51.423C6.33208 51.3815 6.25724 51.3237 6.19579 51.2531C6.13434 51.1824 6.08752 51.1003 6.05803 51.0114C6.02854 50.9225 6.01698 50.8287 6.024 50.7353C6.03103 50.6419 6.0565 50.5509 6.09895 50.4674C6.14141 50.384 6.20002 50.3097 6.27135 50.2491C6.34268 50.1884 6.42532 50.1425 6.51451 50.114C6.60371 50.0855 6.69768 50.075 6.79097 50.0831C6.88426 50.0911 6.97502 50.1176 7.058 50.161L15.424 54.413C15.5881 54.5005 15.7124 54.6474 15.7717 54.8237C15.831 54.9999 15.8208 55.1921 15.743 55.361ZM5.86 52.509L14.241 56.769C14.4042 56.8574 14.5275 57.0046 14.5858 57.1808C14.6442 57.3569 14.6332 57.5487 14.555 57.717C14.2368 58.356 13.7951 58.9257 13.2556 59.3932C12.7161 59.8607 12.0894 60.2167 11.4116 60.4408C10.7338 60.6649 10.0183 60.7525 9.30647 60.6987C8.59463 60.6449 7.90047 60.4507 7.26406 60.1272C6.62764 59.8038 6.06157 59.3576 5.59847 58.8143C5.13537 58.271 4.78441 57.6414 4.56584 56.9618C4.34728 56.2822 4.26544 55.5661 4.32503 54.8547C4.38461 54.1433 4.58444 53.4508 4.91301 52.817C5.00248 52.6587 5.14789 52.5395 5.3207 52.4829C5.4935 52.4263 5.6812 52.4363 5.847 52.511L5.86 52.509ZM19.069 36.856V36.812C18.9329 35.9648 19.1347 35.098 19.631 34.398C19.724 34.302 19.8472 34.2408 19.9799 34.2248C20.1126 34.2088 20.2468 34.2389 20.36 34.31C20.4849 34.3561 20.5891 34.4457 20.6533 34.5623C20.7176 34.6789 20.7377 34.8148 20.71 34.945C20.4478 35.7617 19.8724 36.441 19.11 36.834L19.069 36.856ZM20.076 41.925V41.961C19.554 42.3437 19.0659 42.7706 18.617 43.237C16.6601 45.3901 15.0773 47.8555 13.934 50.531C13.834 50.731 13.722 50.954 13.628 51.166L13.307 51.793L10.389 50.334C10.601 49.911 10.812 49.495 11.038 49.072C12.518 46.5743 13.573 43.8483 14.16 41.005C14.2676 40.3639 14.3215 39.715 14.321 39.065H14.365C15.6383 39.1922 16.9241 39.0456 18.136 38.635V38.671C18.2692 39.0993 18.4364 39.5163 18.636 39.918C19.0047 40.6603 19.4906 41.3383 20.075 41.926L20.076 41.925ZM25.225 23.092C28.1928 24.4206 30.6297 26.7054 32.1466 29.5814C33.6635 32.4574 34.1729 35.7588 33.5935 38.9584C33.014 42.1579 31.3791 45.0709 28.9499 47.2323C26.5206 49.3936 23.4372 50.6786 20.192 50.882C19.5224 50.9226 18.8748 51.1362 18.3124 51.5018C17.75 51.8674 17.292 52.3726 16.983 52.968C16.9458 53.0428 16.8942 53.1095 16.8312 53.1643C16.7681 53.2191 16.6948 53.2609 16.6156 53.2873C16.5363 53.3137 16.4526 53.3242 16.3692 53.3181C16.2859 53.3121 16.2046 53.2896 16.13 53.252L14.343 52.352C14.543 51.936 14.766 51.513 14.992 51.046C16.0748 48.5031 17.5706 46.1568 19.419 44.102C19.8949 43.6238 20.4122 43.1887 20.965 42.802C21.8242 43.5323 22.9228 43.9194 24.05 43.889C24.3584 43.8597 24.6486 43.7294 24.8755 43.5184C25.1024 43.3074 25.2534 43.0275 25.305 42.722C25.3646 42.367 25.3063 42.0024 25.1391 41.6836C24.9719 41.3649 24.7049 41.1097 24.379 40.957C23.8435 40.7562 23.2689 40.6813 22.6998 40.7382C22.1306 40.7951 21.5822 40.9822 21.097 41.285C20.5407 40.7194 20.0845 40.0634 19.748 39.345C19.5569 38.9559 19.4007 38.5506 19.281 38.134C19.9114 37.8701 20.4723 37.4643 20.9202 36.9481C21.368 36.4319 21.6907 35.8193 21.863 35.158C21.9121 34.7774 21.8423 34.391 21.6631 34.0517C21.484 33.7124 21.2043 33.4368 20.8624 33.2627C20.5205 33.0885 20.1331 33.0244 19.7533 33.0791C19.3735 33.1337 19.0199 33.3045 18.741 33.568C18.3161 34.1035 18.0162 34.7272 17.8634 35.3935C17.7106 36.0598 17.7088 36.7519 17.858 37.419C17.446 37.5725 17.0214 37.6896 16.589 37.769C15.8143 37.9163 15.0204 37.9336 14.24 37.82C14.1967 37.2499 14.0229 36.6975 13.7319 36.2054C13.4409 35.7132 13.0407 35.2947 12.562 34.982C12.2473 34.8054 11.8827 34.739 11.5259 34.7934C11.1692 34.8477 10.8408 35.0197 10.593 35.282C10.3746 35.5026 10.237 35.7905 10.2026 36.099C10.1681 36.4075 10.2387 36.7186 10.403 36.982C11.0409 37.9073 12 38.5624 13.094 38.82C13.1113 39.4939 13.0647 40.1679 12.955 40.833C12.3798 43.5539 11.3648 46.1628 9.95003 48.557L9.877 48.681C9.677 49.06 9.48302 49.41 9.29402 49.804L7.51402 48.904C7.3672 48.8209 7.25374 48.6894 7.19301 48.532C7.14537 48.3693 7.1611 48.1946 7.23702 48.043C7.53972 47.4403 7.6788 46.7686 7.64037 46.0952C7.60193 45.4218 7.38734 44.7704 7.01802 44.206C5.63828 42.0445 4.85484 39.5566 4.74718 36.9945C4.63952 34.4325 5.21147 31.8876 6.40502 29.618C8.16044 26.3771 11.0653 23.9105 14.5479 22.7037C18.0305 21.4969 21.8386 21.6372 25.223 23.097L25.225 23.092ZM24.145 42.552C24.145 42.625 24.079 42.661 23.912 42.691C23.4137 42.7004 22.9222 42.5743 22.49 42.326C22.395 42.275 22.315 42.238 22.227 42.18H22.234C22.7462 41.9481 23.3268 41.9167 23.861 42.092C23.9546 42.1266 24.0351 42.1895 24.0914 42.2719C24.1476 42.3544 24.1768 42.4522 24.175 42.552H24.145ZM11.445 36.367C11.372 36.214 11.365 36.148 11.445 36.09C11.5149 36.0132 11.6097 35.9637 11.7126 35.9504C11.8155 35.937 11.9199 35.9606 12.007 36.017C12.4669 36.3445 12.785 36.8346 12.897 37.388V37.446H12.846C12.7487 37.4084 12.6538 37.3646 12.562 37.315C12.12 37.1041 11.7441 36.7763 11.475 36.367H11.445Z" fill="#EBEBEB" stroke="#F15921"/><path id="rotate_2" style=" transform-origin: center; transform-box: fill-box; animation: rotation 2s linear infinite alternate;" d="M292.676 163.143C292.643 163.239 292.59 163.327 292.52 163.401C292.451 163.475 292.367 163.534 292.274 163.574C292.18 163.614 292.079 163.633 291.978 163.632C291.876 163.631 291.776 163.608 291.684 163.566L282.326 159.766C282.23 159.731 282.142 159.677 282.067 159.607C281.992 159.538 281.932 159.453 281.89 159.36C281.848 159.267 281.826 159.166 281.824 159.063C281.822 158.961 281.84 158.859 281.879 158.764C281.917 158.669 281.974 158.583 282.046 158.51C282.118 158.438 282.204 158.381 282.299 158.342C282.394 158.303 282.496 158.284 282.598 158.286C282.7 158.287 282.801 158.31 282.895 158.351L292.26 162.151C292.355 162.185 292.442 162.239 292.516 162.308C292.589 162.378 292.647 162.462 292.686 162.555C292.726 162.649 292.745 162.749 292.743 162.85C292.741 162.951 292.718 163.051 292.676 163.143ZM281.83 160.955L291.195 164.762C291.289 164.796 291.376 164.85 291.448 164.919C291.521 164.988 291.579 165.071 291.618 165.164C291.657 165.256 291.677 165.356 291.675 165.456C291.674 165.556 291.652 165.655 291.611 165.747C290.948 167.05 289.82 168.056 288.45 168.567C287.081 169.078 285.569 169.056 284.215 168.506C282.861 167.956 281.762 166.917 281.137 165.596C280.512 164.275 280.405 162.767 280.838 161.371C280.92 161.189 281.069 161.046 281.254 160.973C281.439 160.899 281.646 160.901 281.83 160.977V160.955ZM294.58 143.034V142.983C294.361 142.088 294.499 141.144 294.967 140.35C295.056 140.238 295.181 140.161 295.321 140.132C295.461 140.103 295.607 140.123 295.733 140.19C295.873 140.226 295.994 140.312 296.075 140.432C296.156 140.551 296.19 140.696 296.171 140.839C296.072 141.288 295.884 141.713 295.618 142.088C295.352 142.464 295.014 142.782 294.623 143.025L294.58 143.034ZM296.112 148.373C295.588 148.835 295.1 149.336 294.653 149.873C292.747 152.353 291.268 155.134 290.277 158.101C290.182 158.334 290.087 158.575 290 158.83L289.716 159.559L286.487 158.249C286.687 157.775 286.866 157.315 287.071 156.834C288.426 154.025 289.308 151.011 289.682 147.914C289.744 147.22 289.744 146.522 289.682 145.828H289.726C291.102 145.857 292.467 145.583 293.726 145.028H293.787V145.064C293.971 145.508 294.188 145.937 294.436 146.348C294.891 147.101 295.457 147.782 296.114 148.368L296.112 148.373ZM299.956 127.717C303.255 128.87 306.072 131.095 307.957 134.037C309.842 136.98 310.687 140.469 310.356 143.948C310.025 147.426 308.537 150.694 306.131 153.227C303.724 155.761 300.538 157.415 297.081 157.925C296.367 158.028 295.691 158.314 295.121 158.757C294.551 159.199 294.105 159.782 293.828 160.449C293.76 160.617 293.628 160.751 293.461 160.822C293.294 160.893 293.106 160.895 292.938 160.828L290.947 160.025C291.129 159.565 291.326 159.091 291.523 158.566C292.456 155.743 293.848 153.094 295.644 150.725C296.106 150.17 296.619 149.66 297.176 149.201C298.161 149.906 299.372 150.221 300.576 150.084C300.904 150.027 301.204 149.863 301.428 149.618C301.653 149.372 301.789 149.059 301.816 148.727C301.848 148.342 301.753 147.957 301.545 147.632C301.337 147.307 301.027 147.059 300.664 146.927C300.074 146.759 299.453 146.729 298.849 146.84C298.246 146.952 297.676 147.201 297.185 147.569C296.538 147.014 295.99 146.353 295.566 145.614C295.325 145.214 295.12 144.795 294.953 144.359C295.598 144.013 296.158 143.527 296.589 142.936C297.021 142.345 297.315 141.665 297.448 140.945C297.478 140.53 297.376 140.115 297.158 139.76C296.94 139.406 296.616 139.128 296.232 138.967C295.848 138.806 295.423 138.769 295.017 138.863C294.611 138.956 294.245 139.174 293.969 139.486C293.559 140.097 293.292 140.793 293.188 141.522C293.084 142.251 293.146 142.993 293.369 143.695C292.941 143.893 292.497 144.054 292.042 144.176C291.224 144.404 290.374 144.498 289.526 144.453C289.434 143.842 289.202 143.26 288.848 142.754C288.493 142.248 288.027 141.831 287.484 141.535C287.129 141.376 286.731 141.339 286.352 141.429C285.974 141.52 285.636 141.733 285.391 142.035C285.176 142.289 285.054 142.61 285.046 142.943C285.038 143.276 285.144 143.602 285.347 143.866C286.111 144.804 287.199 145.421 288.396 145.595C288.48 146.321 288.492 147.054 288.432 147.783C288.057 150.745 287.204 153.627 285.908 156.317L285.842 156.463C285.66 156.886 285.492 157.302 285.324 157.718L283.333 156.908C283.166 156.838 283.03 156.708 282.954 156.543C282.892 156.371 282.892 156.183 282.954 156.011C283.225 155.339 283.314 154.608 283.213 153.891C283.112 153.174 282.824 152.497 282.378 151.926C280.704 149.734 279.64 147.138 279.294 144.401C278.948 141.665 279.333 138.886 280.409 136.346C282.002 132.727 284.891 129.834 288.508 128.237C292.126 126.641 296.21 126.455 299.957 127.717H299.956ZM300.561 148.643C300.561 148.731 300.495 148.774 300.328 148.818C299.793 148.873 299.254 148.782 298.767 148.555C298.667 148.511 298.567 148.475 298.475 148.424C298.995 148.115 299.612 148.014 300.204 148.14C300.312 148.175 300.406 148.245 300.47 148.339C300.535 148.432 300.567 148.544 300.561 148.658V148.643ZM286.404 143.173C286.316 143.013 286.304 142.947 286.36 142.873C286.431 142.786 286.53 142.726 286.64 142.703C286.751 142.681 286.865 142.697 286.965 142.749C287.482 143.062 287.864 143.556 288.037 144.135V144.193H287.979L287.658 144.076C287.167 143.899 286.733 143.591 286.403 143.186L286.404 143.173Z" fill="#F0F0F0" stroke="#F15921"/></g></g></g><defs><clipPath id="clip0_50_9"><rect width="320.972" height="339.043" fill="white"/></clipPath></defs><style> @keyframes translateX { 0%, 100% { transform: translateX(2px); } 50% { transform: translateX(-2px); } } @keyframes translateY { 0%, 100% { transform: translateY(2px); } 50% { transform: translateY(-2px); } } @keyframes pulsecust { 0% { transform: scale(1); } 50% { transform: scale(1.2); } 100% { transform: scale(1); } } @keyframes rotation { 0% { transform: rotate(0deg); } 50% { transform: rotate(10deg); } 100% { transform: rotate(0deg); } }</style></svg>