<svg xmlns="http://www.w3.org/2000/svg" width="18.008" height="20.693" viewBox="0 0 18.008 20.693">
  <g id="noun-notification-887294" transform="translate(-106.354 0.019)">
    <path id="Path_11416" data-name="Path 11416" d="M336.008,447.629a2.4,2.4,0,1,1-4.393,1.927,2.373,2.373,0,0,1-.2-1l3.991-1.75a2.385,2.385,0,0,1,.6.819Z" transform="translate(-216.747 -430.318)" fill="#f15921"/>
    <path id="Path_11417" data-name="Path 11417" d="M106.938,10.969a6.718,6.718,0,0,1,1.13-7.3,2.129,2.129,0,0,1-.192-.327,2.4,2.4,0,0,1,4.393-1.925,2.191,2.191,0,0,1,.108.352,7.046,7.046,0,0,1,6.313,4.1s1.927,4.424,4.043,4.777c.065,0,1.2.032,1.547.859.326.783-.346,1.83-1.515,2.334L110.1,19.292c-1.168.5-2.458.3-2.735-.5a1.775,1.775,0,0,1,.383-1.589c1.195-1.836-.812-6.234-.812-6.234Z" transform="translate(0 0)" fill="#f15921"/>
  </g>
</svg>
