<svg width="166" height="180" viewBox="0 0 166 180" fill="none" xmlns="http://www.w3.org/2000/svg"><g id="noun-notification-2139032 1" clip-path="url(#clip0_44_2)"><path id="translate" style="transform-origin: center; transform-box: fill-box; animation: translateX 2s linear infinite;" d="M96.752 156.203H57.118V157.603C57.118 169.027 65.978 178.352 76.935 178.352C87.892 178.352 96.752 169.027 96.752 157.603C96.752 157.136 96.752 156.671 96.752 156.203Z" fill="#F15921"/><g id="rotate" style="transform-origin: center; transform-box: fill-box; animation: rotation 2s linear infinite;"><path id="Path 11976" d="M3.734 24.155L10.328 17.561L165.289 172.522L158.695 179.116L3.734 24.155Z" fill="#F15921"/><path id="Path 11977" d="M41.032 31.941L152.472 143.38C153.399 141.578 153.879 139.579 153.872 137.552C153.861 133.964 152.478 130.517 150.007 127.916C147.536 125.315 144.164 123.758 140.582 123.563C137.318 118.434 129.625 103.98 126.827 77.402L125.895 65.28C125.882 54.6523 122.42 44.3159 116.03 35.8237C109.64 27.3316 100.666 21.1424 90.458 18.186C90.7269 17.1964 90.8835 16.1797 90.925 15.155V13.989C90.925 10.2789 89.4512 6.72073 86.8277 4.09728C84.2043 1.47384 80.6461 0 76.936 0C73.2259 0 69.6677 1.47384 67.0443 4.09728C64.4208 6.72073 62.947 10.2789 62.947 13.989V15.155C62.9699 16.1814 63.1268 17.2004 63.414 18.186C54.895 20.7695 47.1865 25.5072 41.034 31.941H41.032Z" fill="#F15921"/><path id="Path 11978" d="M13.988 151.54H114.47L27.976 65.046V65.279L27.044 77.403C24.013 103.981 16.553 118.435 13.289 123.564C9.65618 123.767 6.24504 125.376 3.77824 128.051C1.31145 130.725 -0.0172005 134.255 0.0738045 137.892C0.164809 141.53 1.66831 144.989 4.26578 147.537C6.86324 150.085 10.3506 151.521 13.989 151.542L13.988 151.54Z" fill="#F15921"/></g></g><defs><clipPath id="clip0_44_2"><rect width="165.289" height="179.117" fill="white"/></clipPath></defs><style> @keyframes rotation { 0% { transform: rotate(0deg) scale(.9); } 50% { transform: rotate(-5deg) scale(.9); } 100% { transform: rotate(0deg) scale(.9); } } @keyframes translateX { 0%, 100% { transform: translateX(2px); } 50% { transform: translateX(-2px); } }</style></svg>