<svg xmlns="http://www.w3.org/2000/svg" width="24" height="24" viewBox="0 0 24 24">
  <g id="Group_17002" data-name="Group 17002" transform="translate(3158 1542)">
    <rect id="Rectangle_2267" data-name="Rectangle 2267" width="24" height="24" transform="translate(-3158 -1542)" fill="#fff" opacity="0"/>
    <g id="noun-share-1736505" transform="translate(-3318.202 -1605.204)">
      <path id="Path_976" data-name="Path 976" d="M176.943,67.2a2.618,2.618,0,0,0-2.426,3.581l-4.96,2.752a2.606,2.606,0,1,0,.007,3.86l4.96,2.752a2.573,2.573,0,0,0-.19.972,2.619,2.619,0,1,0,.646-1.712l-4.872-2.7a2.6,2.6,0,0,0,0-2.474l4.872-2.7a2.608,2.608,0,1,0,1.964-4.322Z" fill="#f15921"/>
    </g>
  </g>
</svg>
