<svg xmlns="http://www.w3.org/2000/svg" width="18.239" height="13.028" viewBox="0 0 18.239 13.028">
  <g id="noun-mail-5080161" transform="translate(-104.999 -104.997)">
    <path id="Path_11971" data-name="Path 11971" d="M105.2,134.34l5.545,5.422-5.545,5.422a1.947,1.947,0,0,1-.2-.862V135.2A1.947,1.947,0,0,1,105.2,134.34Z" transform="translate(0 -28.251)" fill="#f15921"/>
    <path id="Path_11972" data-name="Path 11972" d="M135.4,105.178a1.947,1.947,0,0,1,.823-.181h14.331a1.947,1.947,0,0,1,.823.181l-7.424,7.259a.791.791,0,0,1-1.128,0Z" transform="translate(-29.269)" fill="#f15921"/>
    <path id="Path_11973" data-name="Path 11973" d="M446.205,134.34l-5.545,5.422,5.545,5.422a1.947,1.947,0,0,0,.2-.862V135.2A1.947,1.947,0,0,0,446.205,134.34Z" transform="translate(-323.167 -28.251)" fill="#f15921"/>
    <path id="Path_11974" data-name="Path 11974" d="M151.386,309.9l-5.545-5.422-.968.946a2.094,2.094,0,0,1-2.95,0l-.968-.946L135.41,309.9a1.947,1.947,0,0,0,.823.181h14.331a1.947,1.947,0,0,0,.823-.181Z" transform="translate(-29.279 -192.058)" fill="#f15921"/>
  </g>
</svg>
